<svg width="451" height="318" viewBox="0 0 451 318" fill="none" xmlns="http://www.w3.org/2000/svg">
<g clip-path="url(#clip0_737_798)">
<path opacity="0.1" d="M150.106 317.821C172.021 317.821 189.786 314.975 189.786 311.463C189.786 307.952 172.021 305.105 150.106 305.105C128.192 305.105 110.426 307.952 110.426 311.463C110.426 314.975 128.192 317.821 150.106 317.821Z" fill="#27CD0D"/>
<path opacity="0.1" d="M365.801 318C393.147 318 415.316 315.153 415.316 311.642C415.316 308.131 393.147 305.284 365.801 305.284C338.455 305.284 316.287 308.131 316.287 311.642C316.287 315.153 338.455 318 365.801 318Z" fill="#27CD0D"/>
<path opacity="0.1" d="M6.136 137.399H47.4653V193.598H9.16168C9.05988 194.174 8.96214 194.755 8.85626 195.336H47.4653V240.659C47.396 240.639 47.335 240.615 47.2698 240.59C46.1784 240.16 45.0952 239.705 44.012 239.217L43.3197 238.904C42.2338 238.392 41.1479 237.851 40.0619 237.279C39.6832 237.08 39.3045 236.873 38.9298 236.662C32.9012 233.293 27.4245 229.023 22.6897 224.002C22.5512 223.868 22.4209 223.726 22.2825 223.596C21.6228 222.881 20.9753 222.158 20.3482 221.419L19.6559 220.606C18.9147 219.7 18.198 218.77 17.5016 217.827C17.3998 217.689 17.3021 217.551 17.1962 217.421C14.3642 213.503 12.0127 209.262 10.192 204.786C10.1349 204.652 10.0861 204.506 10.0331 204.38C9.47389 202.944 8.97843 201.495 8.54677 200.033C8.35945 199.419 8.18027 198.814 8.02552 198.176C7.96851 197.989 7.91964 197.806 7.87485 197.624C5.56181 188.617 5.28897 179.26 5.28897 169.969C5.28897 168.884 5.28897 167.796 5.28897 166.719C5.28897 162.961 5.33377 159.179 5.39892 155.4C5.39892 154.421 5.43964 153.446 5.46 152.463C5.51702 149.969 5.59846 147.474 5.70434 144.98C5.72877 144.285 5.76135 143.594 5.798 142.904C5.798 142.506 5.81836 142.107 5.85909 141.709C5.95682 140.263 6.03827 138.829 6.136 137.399Z" fill="#27CD0D"/>
<path opacity="0.1" d="M47.4653 74.8259H24.795C28.4802 69.0715 32.5067 63.5418 36.853 58.2665C40.2207 54.1389 43.7758 50.1169 47.4653 46.2411V74.8259Z" fill="#27CD0D"/>
<path opacity="0.1" d="M47.4653 76.5647V135.66H6.2663C6.2663 135.489 6.2948 135.315 6.30702 135.144C6.34367 134.677 6.38032 134.21 6.42104 133.747C6.46584 133.202 6.5147 132.654 6.56764 132.121C6.62058 131.589 6.67759 130.939 6.73868 130.35C6.79976 129.761 6.85677 129.164 6.926 128.575C6.99523 127.986 7.05631 127.397 7.12961 126.812C7.20291 126.227 7.26807 125.633 7.34544 125.048C7.40653 124.561 7.47168 124.077 7.53684 123.59C7.6305 122.903 7.72823 122.213 7.83411 121.53C7.83411 121.429 7.86262 121.323 7.87891 121.225C8.62217 116.229 9.63491 111.276 10.9127 106.389C12.2503 101.262 13.9583 96.2378 16.0234 91.3568C18.2182 86.2508 20.788 81.3134 23.7118 76.585L47.4653 76.5647Z" fill="#27CD0D"/>
<path opacity="0.1" d="M57.3323 137.395V193.598H145.607V137.395H57.3323ZM57.3323 195.332V243.597C57.8373 243.702 58.3382 243.804 58.835 243.889C59.511 244.019 60.1829 244.137 60.8711 244.239C61.0014 244.259 61.1358 244.279 61.2783 244.291C61.5471 244.336 61.824 244.373 62.0928 244.409C62.7729 244.503 63.4489 244.58 64.1289 244.641C64.4506 244.673 64.7764 244.702 65.1022 244.726L65.8881 244.787C66.3157 244.819 66.7392 244.844 67.1587 244.856C67.4193 244.856 67.6799 244.88 67.9487 244.889C68.1523 244.889 68.3559 244.889 68.5677 244.889C68.7794 244.889 69.0808 244.889 69.3373 244.889C69.6875 244.889 70.0378 244.889 70.3839 244.889H70.8522C71.2024 244.889 71.5526 244.889 71.8988 244.856H71.9232C72.1635 244.856 72.4078 244.856 72.6521 244.824C72.72 244.828 72.7879 244.828 72.8558 244.824C73.0594 244.824 73.263 244.824 73.4584 244.795H73.601L74.9652 244.689C75.4131 244.649 75.8651 244.596 76.3212 244.547L77.2497 244.438C81.027 243.91 84.7624 243.117 88.428 242.065C96.6621 239.774 104.717 236.568 112.947 234.22C123.588 231.193 135.344 229.706 145.627 233.408V195.332H57.3323ZM145.607 74.8259V0.00408052C135.942 -0.10038 126.304 1.02733 116.926 3.35983C94.5731 8.96223 74.5172 21.1136 57.3323 36.633V74.8219H61.7629V76.5566H57.3323V135.66H145.607V76.5607H79.9537V74.8259H145.607ZM258.99 49.5522C253.46 49.3572 247.963 47.6102 242.99 44.9126C233.482 39.7531 225.887 31.7862 217.4 25.0625C199.767 11.0586 177.899 2.60824 155.465 0.511912V74.8259H281.481L281.795 74.4969L258.99 49.5522ZM270.47 47.5209L282.642 60.8464V44.027C278.565 44.5307 274.994 45.7292 270.486 47.5046L270.47 47.5209ZM282.642 255.581V195.332H256.706C256.636 195.076 256.567 194.816 256.486 194.556C256.563 194.816 256.628 195.076 256.702 195.332H155.482V238.904C156.443 239.615 157.392 240.363 158.332 241.122C159.346 241.935 160.348 242.792 161.354 243.633L162.368 244.47C162.852 244.876 163.341 245.283 163.834 245.665C164.811 246.455 165.798 247.235 166.794 248.005C167.287 248.411 167.792 248.777 168.293 249.158C176.245 255.224 184.633 260.697 193.39 265.535C195.353 266.618 197.334 267.676 199.332 268.708C200.663 269.386 202.003 270.061 203.347 270.715C205.367 271.698 207.403 272.646 209.455 273.559C228.378 282.033 248.386 287.848 268.91 290.837C273.468 291.509 278.044 292.037 282.638 292.422V255.577H283.045L282.642 255.581ZM155.482 76.5607V135.66H282.658V76.5607H155.482ZM155.482 137.395V193.598H282.658V137.395H155.482ZM292.529 43.9539V62.7152L308.065 45.7089C302.918 44.8801 297.739 44.2883 292.529 43.9335V43.9539ZM292.529 137.415V193.598H416.224V137.395L292.529 137.415ZM415.772 260.042L416.208 195.332H292.529V293.068C300.497 293.401 308.476 293.307 316.433 292.783H316.572C320.373 292.545 324.156 292.198 327.921 291.743H328.007C348.095 289.411 367.738 284.182 386.321 276.22M440.075 146.65C439.611 145.557 439.126 144.472 438.633 143.399C437.713 141.368 436.74 139.394 435.738 137.419H426.087V193.598H450.488C450.476 177.688 446.44 161.438 440.087 146.629L440.075 146.65ZM426.087 195.353V251.011C432.961 244.438 438.768 236.918 442.95 228.321C447.979 217.969 450.28 206.761 450.467 195.345L426.087 195.353ZM426.087 121.039V135.664H434.834C432.188 130.629 429.272 125.74 426.099 121.018L426.087 121.039ZM342.198 54.9799C341.555 54.7361 340.912 54.4883 340.264 54.2486C333.435 51.7327 326.457 49.6405 319.369 47.984L295.596 74.0134L295.14 74.4969L295.445 74.83H380.058C368.274 66.7374 355.569 60.0674 342.211 54.9596L342.198 54.9799ZM382.538 76.581H294.264L292.529 78.1654V135.66H307.735H307.759H416.24V107.811C406.427 95.9703 395.101 85.4642 382.55 76.5607L382.538 76.581Z" fill="#27CD0D"/>
<path opacity="0.1" d="M47.4653 106.372V135.66H6.2663C6.2663 135.489 6.2948 135.315 6.30702 135.144C6.34367 134.677 6.38032 134.21 6.42104 133.747C6.46584 133.202 6.5147 132.654 6.56764 132.121C6.62058 131.589 6.67759 130.939 6.73868 130.35C6.79976 129.761 6.85677 129.164 6.926 128.575C6.99523 127.986 7.05631 127.397 7.12961 126.812C7.20291 126.227 7.26807 125.633 7.34544 125.048C7.40653 124.561 7.47168 124.077 7.53684 123.59C7.6305 122.903 7.72823 122.213 7.83411 121.53C7.83411 121.429 7.86262 121.323 7.87891 121.225C8.62217 116.229 9.63491 111.276 10.9127 106.389L47.4653 106.372Z" fill="#27CD0D"/>
<path opacity="0.1" d="M6.136 137.399H47.4653V193.598H9.16168C9.05988 194.174 8.96214 194.755 8.85626 195.336H47.4653V240.659C47.396 240.639 47.335 240.615 47.2698 240.59C46.1784 240.16 45.0952 239.705 44.012 239.217L43.3197 238.904C42.2338 238.392 41.1479 237.851 40.0619 237.279C39.6832 237.08 39.3045 236.873 38.9298 236.662C32.9012 233.293 27.4245 229.023 22.6897 224.002C22.5512 223.868 22.4209 223.726 22.2825 223.596C21.6228 222.881 20.9753 222.158 20.3482 221.419L19.6559 220.606C18.9147 219.7 18.198 218.77 17.5016 217.827C17.3998 217.689 17.3021 217.551 17.1962 217.421C14.3642 213.503 12.0127 209.262 10.192 204.786C10.1349 204.652 10.0861 204.506 10.0331 204.38C9.47389 202.944 8.97843 201.495 8.54677 200.033C8.35945 199.419 8.18027 198.814 8.02552 198.176C7.96851 197.989 7.91964 197.806 7.87485 197.624C5.56181 188.617 5.28897 179.26 5.28897 169.969C5.28897 168.884 5.28897 167.796 5.28897 166.719C5.28897 162.961 5.33377 159.179 5.39892 155.4C5.39892 154.421 5.43964 153.446 5.46 152.463C5.51702 149.969 5.59846 147.474 5.70434 144.98C5.72877 144.285 5.76135 143.594 5.798 142.904C5.798 142.506 5.81836 142.107 5.85909 141.709C5.95682 140.263 6.03827 138.829 6.136 137.399Z" fill="#27CD0D"/>
<path opacity="0.1" d="M88.4077 85.0232V135.66H57.3323V85.0232H61.7629V67.8788H79.9496V85.0232H88.4077Z" fill="#27CD0D"/>
<path opacity="0.1" d="M88.4077 137.395H57.3364V193.593H88.4077V137.395Z" fill="#27CD0D"/>
<path opacity="0.1" d="M57.3323 195.336H88.4077V242.057C84.742 243.108 81.0067 243.899 77.2294 244.425L76.3009 244.539C75.8448 244.592 75.3928 244.637 74.9448 244.681C74.4969 244.726 74.0326 244.759 73.5806 244.787H73.4381C73.2426 244.787 73.0309 244.811 72.8395 244.815H72.6318C72.3874 244.815 72.1431 244.84 71.8988 244.848C71.5526 244.868 71.2065 244.872 70.8522 244.876C70.7015 244.876 70.559 244.876 70.4083 244.876C70.0581 244.876 69.712 244.876 69.3618 244.876H68.5921C68.3844 244.876 68.1849 244.876 67.9691 244.876L67.1831 244.848C66.7759 244.848 66.3361 244.803 65.9126 244.775L65.1307 244.718L64.1574 244.629C63.4733 244.568 62.7932 244.49 62.1213 244.397L61.3069 244.283L60.8996 244.226C60.2196 244.121 59.5476 244.007 58.8635 243.877C58.3626 243.792 57.8658 243.686 57.3608 243.584L57.3323 195.336Z" fill="#27CD0D"/>
<path opacity="0.1" d="M282.658 79.043H257.036V135.656H282.658V79.043Z" fill="#27CD0D"/>
<path opacity="0.1" d="M282.662 137.395V193.598H155.482V169.356H223.224V183.656H257.035V137.395H282.662Z" fill="#27CD0D"/>
<path opacity="0.1" d="M283.065 255.594H282.658V292.462C278.07 292.075 273.496 291.548 268.935 290.882C248.401 287.883 228.383 282.055 209.455 273.567C203.99 271.113 198.637 268.434 193.394 265.531C184.638 260.691 176.248 255.217 168.293 249.154C166.295 247.627 164.323 246.064 162.376 244.466C161.028 243.357 159.688 242.219 158.332 241.114C157.392 240.355 156.443 239.607 155.482 238.892V195.336H256.697C256.628 195.076 256.559 194.816 256.486 194.56C256.563 194.816 256.636 195.076 256.706 195.336H282.658V255.569C282.797 255.573 282.931 255.586 283.065 255.594Z" fill="#27CD0D"/>
<path opacity="0.1" d="M349.484 74.8259H332.787V69.6501H340.272V54.2324C340.921 54.468 341.567 54.7104 342.211 54.9596V69.6501H349.484V74.8259Z" fill="#27CD0D"/>
<path opacity="0.1" d="M389.709 135.66H307.743C307.743 135.66 307.743 135.66 307.772 135.68L307.735 135.66H292.529V79.047H296.838V120.892H316.527V96.1101H332.792V76.5647H349.488V96.1264H365.752V120.909H389.709V135.66Z" fill="#27CD0D"/>
<path opacity="0.1" d="M292.529 137.395V193.598H389.709V137.395H292.529ZM416.089 259.754L416.224 215.268H389.709V195.361H292.529V293.068C300.497 293.401 308.476 293.307 316.433 292.783H316.572C320.373 292.545 324.156 292.198 327.921 291.743H328.007C348.095 289.411 367.738 284.182 386.321 276.22" fill="#27CD0D"/>
<path opacity="0.1" d="M427.813 195.336H450.484C450.284 206.748 447.987 217.957 442.962 228.309C438.78 236.909 432.969 244.429 426.103 250.999V215.247H427.813V195.336Z" fill="#27CD0D"/>
<path opacity="0.1" d="M450.496 193.598H427.813V146.629H440.087C446.44 161.438 450.476 177.688 450.496 193.598Z" fill="#27CD0D"/>
<path opacity="0.1" d="M282.662 94.7817H268.935V112.531H282.662V94.7817Z" fill="#27CD0D"/>
<path opacity="0.1" d="M282.662 131.573H268.935V135.66H282.662V131.573Z" fill="#27CD0D"/>
<path opacity="0.1" d="M282.662 137.395H268.935V149.319H282.662V137.395Z" fill="#27CD0D"/>
<path opacity="0.1" d="M282.662 168.364H268.935V186.114H282.662V168.364Z" fill="#27CD0D"/>
<path opacity="0.1" d="M282.662 205.156H268.935V222.906H282.662V205.156Z" fill="#27CD0D"/>
<path opacity="0.1" d="M282.658 255.569C282.797 255.569 282.931 255.569 283.065 255.594H282.658V259.717H268.935V241.947H282.658V255.569Z" fill="#27CD0D"/>
<path opacity="0.1" d="M282.658 278.73V292.442C278.07 292.055 273.496 291.528 268.935 290.862V278.73H282.658Z" fill="#27CD0D"/>
<path opacity="0.1" d="M214.313 192.293H155.482V193.598H214.313V192.293Z" fill="#27CD0D"/>
<path opacity="0.1" d="M214.313 195.332H155.482V200.329H214.313V195.332Z" fill="#27CD0D"/>
<path opacity="0.1" d="M214.313 216.71H155.482V224.746H214.313V216.71Z" fill="#27CD0D"/>
<path opacity="0.1" d="M214.309 241.127V249.162H168.293C166.295 247.64 164.321 246.078 162.372 244.474C161.024 243.365 159.688 242.228 158.328 241.127H214.309Z" fill="#27CD0D"/>
<path opacity="0.1" d="M214.309 265.539V273.567H209.451C203.992 271.11 198.639 268.43 193.394 265.527L214.309 265.539Z" fill="#27CD0D"/>
<path opacity="0.1" d="M328.019 142.843H316.437V154.397H328.019V142.843Z" fill="#27CD0D"/>
<path opacity="0.1" d="M77.2578 89.0087H65.6764V100.563H77.2578V89.0087Z" fill="#27CD0D"/>
<path opacity="0.1" d="M77.2578 115.846H65.6764V127.401H77.2578V115.846Z" fill="#27CD0D"/>
<path opacity="0.1" d="M77.2578 142.684H65.6764V154.239H77.2578V142.684Z" fill="#27CD0D"/>
<path opacity="0.1" d="M77.2578 169.518H65.6764V181.072H77.2578V169.518Z" fill="#27CD0D"/>
<path opacity="0.1" d="M77.2578 196.356H65.6764V207.91H77.2578V196.356Z" fill="#27CD0D"/>
<path opacity="0.1" d="M77.2578 223.194H65.6764V234.748H77.2578V223.194Z" fill="#27CD0D"/>
<path opacity="0.1" d="M372.231 142.843H360.65V154.397H372.231V142.843Z" fill="#27CD0D"/>
<path opacity="0.1" d="M328.019 171.342H316.437V182.897H328.019V171.342Z" fill="#27CD0D"/>
<path opacity="0.1" d="M372.231 171.342H360.65V182.897H372.231V171.342Z" fill="#27CD0D"/>
<path opacity="0.1" d="M328.019 199.838H316.437V211.392H328.019V199.838Z" fill="#27CD0D"/>
<path opacity="0.1" d="M372.231 199.838H360.65V211.392H372.231V199.838Z" fill="#27CD0D"/>
<path opacity="0.1" d="M328.019 228.337H316.437V239.891H328.019V228.337Z" fill="#27CD0D"/>
<path opacity="0.1" d="M372.231 228.337H360.65V239.891H372.231V228.337Z" fill="#27CD0D"/>
<path opacity="0.1" d="M328.019 256.837H316.437V268.391H328.019V256.837Z" fill="#27CD0D"/>
<path opacity="0.1" d="M372.231 256.837H360.65V268.391H372.231V256.837Z" fill="#27CD0D"/>
<path opacity="0.1" d="M316.437 292.783V285.332H328.015V291.723L316.437 292.783Z" fill="#27CD0D"/>
<path opacity="0.1" d="M7.83005 121.217V127.827H47.4653V121.217H7.83005ZM11.7801 127.413H8.54676V121.624H11.8046L11.7801 127.413ZM15.7261 127.413H12.4683V121.624H15.7261V127.413ZM19.664 127.413H16.4062V121.624H19.664V127.413ZM23.61 127.413H20.3563V121.624H23.6141L23.61 127.413ZM27.552 127.413H24.2942V121.624H27.552V127.413ZM31.498 127.413H28.2402V121.624H31.498V127.413ZM35.444 127.413H32.1862V121.624H35.444V127.413ZM39.3859 127.413H36.1281V121.624H39.3859V127.413ZM43.3279 127.413H40.0701V121.624H43.3279V127.413ZM47.2698 127.413H44.012V121.624H47.2698V127.413Z" fill="#27CD0D"/>
<path opacity="0.1" d="M7.83005 140.45V147.06H47.4653V140.45H7.83005ZM11.7801 146.641H8.54676V140.868H11.8046L11.7801 146.641ZM15.7261 146.641H12.4683V140.868H15.7261V146.641ZM19.664 146.641H16.4062V140.868H19.664V146.641ZM23.61 146.641H20.3563V140.868H23.6141L23.61 146.641ZM27.552 146.641H24.2942V140.868H27.552V146.641ZM31.498 146.641H28.2402V140.868H31.498V146.641ZM35.444 146.641H32.1862V140.868H35.444V146.641ZM39.3859 146.641H36.1281V140.868H39.3859V146.641ZM43.3279 146.641H40.0701V140.868H43.3279V146.641ZM47.2698 146.641H44.012V140.868H47.2698V146.641Z" fill="#27CD0D"/>
<path opacity="0.1" d="M7.83005 159.691V166.313H47.4653V159.691H7.83005ZM11.7801 165.882H8.54676V160.105H11.8046L11.7801 165.882ZM15.7261 165.882H12.4683V160.105H15.7261V165.882ZM19.664 165.882H16.4062V160.105H19.664V165.882ZM23.61 165.882H20.3563V160.105H23.6141L23.61 165.882ZM27.552 165.882H24.2942V160.105H27.552V165.882ZM31.498 165.882H28.2402V160.105H31.498V165.882ZM35.444 165.882H32.1862V160.105H35.444V165.882ZM39.3859 165.882H36.1281V160.105H39.3859V165.882ZM43.3279 165.882H40.0701V160.105H43.3279V165.882ZM47.2698 165.882H44.012V160.105H47.2698V165.882Z" fill="#27CD0D"/>
<path opacity="0.1" d="M7.83005 178.931V185.533H47.4653V178.931H7.83005ZM11.7801 185.123H8.54676V179.342H11.8046L11.7801 185.123ZM15.7261 185.123H12.4683V179.342H15.7261V185.123ZM19.664 185.123H16.4062V179.342H19.664V185.123ZM23.61 185.123H20.3563V179.342H23.6141L23.61 185.123ZM27.552 185.123H24.2942V179.342H27.552V185.123ZM31.498 185.123H28.2402V179.342H31.498V185.123ZM35.444 185.123H32.1862V179.342H35.444V185.123ZM39.3859 185.123H36.1281V179.342H39.3859V185.123ZM43.3279 185.123H40.0701V179.342H43.3279V185.123ZM47.2698 185.123H44.012V179.342H47.2698V185.123Z" fill="#27CD0D"/>
<path opacity="0.1" d="M8.0011 198.168C8.15992 198.79 8.33909 199.411 8.52642 200.025V198.582H11.7842V204.359H10.0413C10.0942 204.494 10.1472 204.64 10.2001 204.766H47.4653V198.168H8.0011ZM15.7384 204.359H12.4806V198.582H15.7384V204.359ZM19.6762 204.359H16.4184V198.582H19.6762V204.359ZM23.6222 204.359H20.3563V198.582H23.6141L23.6222 204.359ZM27.5642 204.359H24.3064V198.582H27.5642V204.359ZM31.5102 204.359H28.2524V198.582H31.5102V204.359ZM35.4562 204.359H32.1984V198.582H35.4562V204.359ZM39.3981 204.359H36.1403V198.582H39.3981V204.359ZM43.3401 204.359H40.0823V198.582H43.3401V204.359ZM47.282 204.359H44.0242V198.582H47.282V204.359Z" fill="#27CD0D"/>
<path opacity="0.1" d="M17.2044 217.409C17.3062 217.539 17.4039 217.685 17.5098 217.815H19.664V220.59C19.8961 220.866 20.1242 221.142 20.3604 221.402V217.799H23.6182V223.596H22.2988C22.4291 223.73 22.5553 223.872 22.706 224.002H47.4775V217.409H17.2044ZM27.552 223.596H24.2942V217.823H27.552V223.596ZM31.498 223.596H28.2402V217.823H31.498V223.596ZM35.444 223.596H32.1862V217.823H35.444V223.596ZM39.3859 223.596H36.1281V217.823H39.3859V223.596ZM43.3279 223.596H40.0701V217.823H43.3279V223.596ZM47.2698 223.596H44.012V217.823H47.2698V223.596Z" fill="#27CD0D"/>
<path opacity="0.1" d="M38.9461 236.645C39.3167 236.857 39.6954 237.052 40.0782 237.263V237.06H43.336V238.888L44.0283 239.209V237.06H47.2861V240.574C47.3486 240.605 47.4141 240.629 47.4815 240.647V236.645H38.9461Z" fill="#27CD0D"/>
<path opacity="0.1" d="M256.486 194.556C256.563 194.816 256.628 195.076 256.702 195.332C256.636 195.076 256.567 194.816 256.486 194.556ZM61.7792 74.8137V76.5485H79.97V74.8137H61.7792ZM256.486 194.556C256.563 194.816 256.628 195.076 256.702 195.332C256.636 195.076 256.567 194.816 256.486 194.556ZM256.486 194.556C256.563 194.816 256.628 195.076 256.702 195.332C256.636 195.076 256.567 194.816 256.486 194.556Z" fill="#27CD0D"/>
<path d="M188.475 154.247C188.475 154.247 186.871 154.023 186.871 151.691C186.871 149.359 185.722 145.004 185.722 145.004C185.722 144.984 184.729 137.419 183.356 136.217C181.984 135.014 180.221 127.953 180.221 127.953C180.221 127.953 179.919 124.122 179.304 123.297C178.689 122.473 177.859 120.454 176.633 117.573C175.407 114.693 170.297 112.698 170.297 112.698C170.297 112.698 161.057 107.352 158.438 105.609C158.2 105.465 157.978 105.298 157.774 105.109C157.318 104.512 155.331 104.5 155.331 104.5C155.123 103.191 154.924 101.688 154.859 100.327C154.859 100.181 154.859 100.035 154.838 99.8884C157.758 98.1666 159.957 95.4518 161.032 92.2425C161.081 92.0881 161.122 91.9256 161.167 91.7712C161.342 91.7137 161.503 91.6205 161.639 91.4973C161.776 91.3742 161.885 91.224 161.961 91.0562C162.197 90.5321 162.201 89.9187 162.494 89.4312C162.836 88.8543 163.488 88.5455 164.001 88.1108C165.296 87.0139 165.63 85.1654 165.569 83.4834C165.528 82.1224 165.308 80.7493 165.394 79.3964L165.418 79.0551C165.442 78.852 165.471 78.6489 165.508 78.4539C165.707 77.4463 166.143 76.4957 166.387 75.4963C166.632 74.4968 166.656 73.3715 166.086 72.5102C165.251 71.2467 163.512 70.9948 161.985 70.8648C160.254 70.7186 158.707 70.9095 157.599 69.4754C157.081 68.7259 156.498 68.023 155.856 67.375C155.628 67.1638 153.413 65.815 153.413 65.7256C151.251 64.7265 148.8 64.539 146.511 65.1974C145.362 65.5306 144.279 66.075 143.114 66.3472C140.602 66.9403 137.71 66.2984 135.577 67.7325C134.387 68.5451 133.675 69.837 133.007 71.0964C132.464 72.1337 131.913 73.1697 131.354 74.2043C130.454 75.9066 129.537 77.6373 129.159 79.5223C129.079 79.9325 129.03 80.3481 129.012 80.7655V80.7858C129.012 80.9362 129.012 81.0865 129.012 81.2368V81.4277C129.012 81.5699 129.012 81.7081 129.037 81.834C129.061 81.9599 129.057 82.0006 129.069 82.0859C129.081 82.1712 129.102 82.3621 129.126 82.4921C129.151 82.6221 129.199 82.8497 129.248 83.0284C129.269 83.1056 129.297 83.1787 129.322 83.2519C129.362 83.39 129.411 83.5241 129.464 83.6581C129.493 83.7272 129.521 83.8003 129.554 83.8694C129.615 84.0116 129.688 84.1497 129.761 84.2757C129.794 84.3325 129.818 84.3853 129.851 84.4382C129.965 84.6271 130.09 84.8089 130.226 84.9825C131.097 86.0673 132.38 86.7579 133.329 87.7736C133.329 87.8142 133.329 87.8548 133.329 87.8914C133.329 88.0052 133.329 88.1148 133.329 88.2286C133.379 90.4937 133.983 92.7123 135.089 94.6913C136.195 96.6703 137.769 98.3498 139.673 99.5837C139.673 99.7381 139.694 99.8965 139.702 100.051C139.781 101.257 139.766 102.467 139.657 103.671C139.491 103.476 139.284 103.321 139.05 103.217C138.816 103.113 138.561 103.062 138.305 103.069C138.13 103.061 137.955 103.076 137.784 103.114L137.747 103.086V103.122C136.851 103.342 135.748 104.272 134.693 106.917C134.693 106.917 131.484 110.524 129.041 110.374C126.597 110.224 120.412 114.128 120.412 114.128C120.412 114.128 114.376 118.036 113.081 122.018C112.358 124.275 111.49 126.485 110.483 128.632L103.023 143.968L101.647 156.136C101.647 156.136 102.408 161.547 102.257 162.372C102.107 163.197 105.389 170.635 105.389 170.635C105.389 170.635 116.233 189.645 120.664 190.62L120.982 190.396C121.171 190.495 121.372 190.57 121.58 190.62L122.492 189.978C122.547 190.693 122.524 191.412 122.423 192.123C121.812 194 122.651 206.249 123.718 208.65C124.785 211.051 124.406 242.532 124.406 242.532L124.256 245.311C124.256 245.311 124.256 245.4 124.292 245.555L124.256 246.213L124.366 246.27C124.48 247.151 124.443 248.046 124.256 248.915C123.873 250.133 123.718 253.579 123.718 253.579C123.718 253.579 120.668 273.031 122.114 276.939C123.559 280.847 124.789 285.129 124.789 285.129C124.789 285.129 126.316 290.004 124.862 290.837C123.409 291.67 119.275 293.068 120.126 295.099C120.9 296.976 123.836 302.005 124.272 302.741L124.235 303.127L123.637 309.598C123.734 310.453 123.966 311.287 124.325 312.069C124.981 313.478 126.255 314.941 128.678 314.782C129.085 314.754 129.558 314.705 130.014 314.644C134.449 314.051 139.909 312.077 139.909 312.077C139.626 311.897 139.366 311.683 139.136 311.439C138.918 311.228 138.745 310.975 138.628 310.696C138.511 310.417 138.453 310.116 138.456 309.814C138.521 308.636 136.31 303.021 135.76 301.64C135.674 301.441 135.63 301.327 135.63 301.327C135.63 301.327 140.671 296.07 139.832 291.41C139.832 291.41 134.253 288.16 136.09 286.376C137.926 284.593 141.208 279.47 141.208 279.47C141.208 279.47 141.359 260.314 141.208 257.454C141.051 255.469 141.146 253.472 141.489 251.511C141.551 251.214 141.624 250.926 141.701 250.641C144.241 251.02 146.805 251.214 149.373 251.222C150.31 251.222 151.263 251.222 152.224 251.165C152.224 251.436 152.236 251.729 152.261 252.043C152.472 256.788 152.867 265.108 153.189 268.2C153.645 272.632 156.166 284.577 156.166 284.577C156.166 284.577 151.357 287.656 157.005 295.245C157.005 295.245 157.005 297.995 156.63 298.394C156.23 299.695 155.908 301.019 155.665 302.359C155.429 303.789 155.331 305.235 155.714 305.987C156.63 307.782 162.128 307.636 162.128 307.636L162.262 307.612C163.3 307.505 164.349 307.604 165.348 307.905C166.347 308.206 167.276 308.701 168.081 309.363C170.17 311.037 178.099 310.301 182.391 309.769C184.073 309.558 185.197 309.363 185.197 309.363C185.251 309.173 185.271 308.975 185.254 308.778C185.209 307.726 184.382 305.418 178.779 303.358C178.779 303.358 173.51 299.824 173.583 296.744H173.473H172.862C173.306 296.72 173.591 296.744 173.591 296.744C173.591 296.744 171.526 289.228 172.369 288.619C173.212 288.01 170.688 279.681 170.688 279.681C170.688 279.681 169.242 265.706 169.164 264.726C169.168 263.886 169.295 263.051 169.543 262.248L169.164 254.586C169.164 254.586 169.091 252.039 169.164 251.21C169.152 250.491 169.094 249.773 168.989 249.061C168.953 248.776 168.916 248.48 168.875 248.187C170.85 247.688 172.133 247.225 172.133 247.225L171.905 220.553C173.583 217.303 173.892 210.173 173.884 205.115C173.884 201.865 173.738 199.46 173.738 199.46L176.03 195.726C176.03 195.726 176.56 191.257 175.721 190.278C175.35 189.836 175.517 189.376 175.823 188.999C175.981 188.873 176.149 188.759 176.324 188.657C176.324 188.657 176.299 188.621 176.271 188.568C176.431 188.435 176.601 188.314 176.78 188.206C176.78 188.206 175.965 186.947 176.694 186.415C177.378 186.878 177.989 187.227 178.453 187.512C178.421 187.808 178.388 187.979 178.388 187.979L178.584 187.573C179.032 187.825 179.304 187.979 179.304 187.979C179.304 187.979 182.896 180.841 182.819 179.789C182.741 178.736 185.262 174.304 185.262 174.304C185.262 174.304 185.568 171.976 186.944 171.001C188.32 170.026 188.011 162.961 188.011 162.961C188.011 162.961 188.394 159.28 189.31 157.777C190.226 156.274 188.475 154.247 188.475 154.247ZM119.752 151.114L119.821 152.817C119.414 152.163 119.121 151.691 119.121 151.691L119.752 151.114Z" fill="url(#paint0_linear_737_798)"/>
<path d="M179.5 184.895L178.62 188.633C178.62 188.633 171.575 185.046 170.305 180.487C169.034 175.929 172.43 174.198 172.43 174.198L178.995 176.973L179.5 184.895Z" fill="white"/>
<path opacity="0.1" d="M179.5 184.895L178.62 188.633C178.62 188.633 171.575 185.046 170.305 180.487C169.034 175.929 172.43 174.198 172.43 174.198L178.995 176.973L179.5 184.895Z" fill="black"/>
<path d="M139.962 312.101C139.962 312.101 133.447 314.49 128.967 314.79C126.589 314.949 125.339 313.495 124.695 312.093C124.344 311.314 124.117 310.484 124.024 309.635L124.606 303.196L124.915 299.767L134.432 297.301L135.78 301.412L135.906 301.725C136.448 303.098 138.619 308.684 138.553 309.85C138.551 310.149 138.608 310.445 138.723 310.721C138.838 310.996 139.007 311.246 139.221 311.455C139.44 311.701 139.689 311.918 139.962 312.101Z" fill="white"/>
<path d="M184.468 308.827C184.484 309.022 184.465 309.219 184.411 309.408C184.411 309.408 170.476 311.727 167.625 309.408C166.821 308.73 165.885 308.227 164.875 307.932C163.865 307.637 162.804 307.555 161.761 307.693C161.761 307.693 156.369 307.839 155.469 306.068C155.095 305.325 155.193 303.882 155.425 302.46C155.661 301.128 155.977 299.811 156.369 298.516L156.585 298.345L157.868 297.317L172.886 296.874H173.001C172.927 299.938 178.099 303.452 178.099 303.452C183.592 305.483 184.403 307.778 184.468 308.827Z" fill="white"/>
<path opacity="0.1" d="M184.468 308.826C184.482 309.022 184.462 309.219 184.407 309.407C184.407 309.407 170.476 311.727 167.625 309.407C166.822 308.73 165.886 308.228 164.877 307.933C163.868 307.638 162.808 307.556 161.765 307.693C161.765 307.693 156.369 307.839 155.474 306.068C155.099 305.32 155.193 303.882 155.425 302.46C157.502 302.668 160.78 303.183 162.067 304.414C164.013 306.287 167.312 308.156 169.336 308.302C170.92 308.404 180.396 308.705 184.468 308.826Z" fill="black"/>
<path opacity="0.1" d="M139.962 312.101C139.962 312.101 133.447 314.49 128.967 314.791C126.589 314.949 125.339 313.495 124.7 312.089C126.357 312.645 128.658 313.23 129.867 312.694C131.301 312.06 136.383 311.65 139.233 311.475C139.45 311.712 139.695 311.922 139.962 312.101Z" fill="black"/>
<path d="M149.63 119.592C144.254 117.508 137.34 110.622 139.066 107.404C139.45 106.592 139.678 105.716 139.738 104.82C139.849 103.605 139.866 102.382 139.787 101.164C139.666 99.1689 139.425 97.1828 139.066 95.2164C139.066 95.2164 155.848 95.5942 154.871 98.0602C154.586 98.7834 154.541 100.039 154.618 101.444C154.696 102.85 154.899 104.439 155.111 105.783C155.404 107.628 155.698 109.033 155.698 109.033C155.698 109.033 154.671 110.468 154.069 110.545C153.466 110.622 157.343 122.562 149.63 119.592Z" fill="#CF6F80"/>
<path opacity="0.1" d="M135.894 301.725L135.768 301.863C130.751 295.81 124.683 303.354 124.683 303.354L124.594 303.196L124.903 299.767L134.42 297.301L135.768 301.412L135.894 301.725Z" fill="black"/>
<path opacity="0.1" d="M173.005 297.301C173.005 297.301 169.34 297.224 167.385 298.946C165.43 300.669 155.983 299.32 156.39 298.946C156.511 298.761 156.583 298.549 156.602 298.329L157.884 297.301L172.903 296.858C172.96 297.13 173.005 297.301 173.005 297.301Z" fill="black"/>
<path d="M142.137 249.764C141.864 250.437 141.657 251.135 141.518 251.848C141.178 253.8 141.084 255.787 141.237 257.763C141.388 260.607 141.237 279.665 141.237 279.665C141.237 279.665 138.016 284.747 136.22 286.539C134.424 288.33 139.885 291.548 139.885 291.548C140.699 296.18 135.764 301.412 135.764 301.412C130.747 295.359 124.679 302.907 124.679 302.907C124.679 302.907 121.381 297.22 120.558 295.188C119.736 293.157 123.779 291.751 125.2 290.927C126.622 290.102 125.131 285.239 125.131 285.239C125.131 285.239 123.93 280.977 122.505 277.089C121.079 273.201 124.077 253.847 124.077 253.847C124.077 253.847 124.231 250.41 124.602 249.211C124.789 248.346 124.826 247.456 124.712 246.579C124.687 246.282 124.659 246.034 124.638 245.868C124.618 245.701 124.602 245.624 124.602 245.624L124.659 245.526L126.695 241.74C126.695 241.74 143.114 247.379 142.137 249.764Z" fill="#27CD0D"/>
<path d="M173.005 296.854C173.005 296.854 169.34 296.777 167.385 298.479C165.43 300.181 155.983 298.853 156.39 298.479C156.797 298.105 156.764 295.339 156.764 295.339C151.222 287.79 155.95 284.727 155.95 284.727C155.95 284.727 153.474 272.844 153.026 268.436C152.713 265.356 152.326 257.081 152.118 252.356C152.028 250.324 151.976 248.927 151.976 248.927L156.504 248.017L157.086 247.899L168.008 245.713C168.008 245.713 168.309 247.745 168.513 249.406C168.614 250.116 168.672 250.831 168.684 251.547C168.611 252.36 168.684 254.903 168.684 254.903L169.055 262.529C168.812 263.328 168.688 264.159 168.684 264.995C168.757 265.966 170.178 279.868 170.178 279.868C170.178 279.868 172.65 288.164 171.807 288.761C170.964 289.358 173.005 296.854 173.005 296.854Z" fill="#27CD0D"/>
<path opacity="0.1" d="M154.871 98.0602C154.586 98.7834 154.541 100.039 154.618 101.444C152.371 102.795 149.786 103.485 147.163 103.436C144.539 103.388 141.983 102.601 139.787 101.168C139.666 99.1716 139.426 97.1842 139.066 95.2164C139.066 95.2164 155.848 95.5861 154.871 98.0602Z" fill="black"/>
<path d="M161.358 89.0817C161.361 90.5457 161.13 92.0009 160.674 93.3922C159.654 96.5098 157.561 99.1671 154.767 100.895C151.973 102.622 148.657 103.309 145.404 102.833C142.152 102.357 139.173 100.749 136.994 98.2935C134.814 95.8382 133.575 92.6934 133.496 89.4149C133.496 89.3011 133.496 89.1955 133.496 89.0817C133.464 87.2363 133.801 85.4031 134.487 83.689C135.173 81.9749 136.194 80.4142 137.491 79.098C138.788 77.7818 140.335 76.7364 142.041 76.0228C143.747 75.3092 145.579 74.9417 147.429 74.9417C149.279 74.9417 151.11 75.3092 152.817 76.0228C154.523 76.7364 156.069 77.7818 157.366 79.098C158.663 80.4142 159.685 81.9749 160.371 83.689C161.057 85.4031 161.394 87.2363 161.362 89.0817H161.358Z" fill="#CF6F80"/>
<path opacity="0.1" d="M149.63 119.592C144.254 117.508 137.34 110.622 139.066 107.404C139.45 106.592 139.678 105.716 139.738 104.82L147.097 110.854L151.65 114.579L155.111 105.787C155.404 107.632 155.698 109.038 155.698 109.038C155.698 109.038 154.671 110.472 154.069 110.549C153.466 110.626 157.343 122.562 149.63 119.592Z" fill="black"/>
<path d="M168.66 146.255L162.514 249.244L154.5 249.768L133.748 190.051L137.153 119.153L137.869 104.174L147.097 111.735L151.654 115.461L155.217 106.413L161.843 112.174L168.66 146.255Z" fill="#27CD0D"/>
<path opacity="0.1" d="M142.137 249.764C141.864 250.437 141.657 251.135 141.518 251.848C135.686 250.95 130.023 249.184 124.716 246.611L124.606 246.554L124.643 245.9L124.663 245.559L126.699 241.772C126.699 241.772 143.114 247.379 142.137 249.764Z" fill="black"/>
<path opacity="0.1" d="M156.597 251.864C155.107 252.117 153.603 252.288 152.094 252.376C152.004 250.345 151.951 248.947 151.951 248.947L156.479 248.037L156.597 251.864Z" fill="black"/>
<path opacity="0.1" d="M168.489 249.426C165.593 250.178 161.122 251.023 157.119 250.495L157.062 247.919L167.984 245.734C167.984 245.734 168.285 247.745 168.489 249.426Z" fill="black"/>
<path opacity="0.1" d="M157.045 250.966C140.349 253.81 125.058 245.656 125.058 245.656L125.205 242.894C125.205 242.894 125.583 211.575 124.533 209.174C123.482 206.773 122.663 194.597 123.258 192.728C123.853 190.859 121.087 162.835 121.087 162.835L120.64 151.46L104.245 144.834L111.575 129.59C112.565 127.453 113.416 125.255 114.124 123.009C115.399 119.052 121.316 115.164 121.316 115.164C121.316 115.164 127.383 111.28 129.782 111.426C132.18 111.573 135.324 107.989 135.324 107.989C137.645 102.086 139.747 104.76 139.747 104.76C139.747 105.04 139.747 104.76 139.633 105.633C138.818 112.113 152.802 132.589 153.002 132.95L154.333 165.313L155.681 206.269L157.045 250.966Z" fill="black"/>
<path d="M156.598 250.966C139.901 253.81 124.606 245.656 124.606 245.656L124.757 242.894C124.757 242.894 125.135 211.575 124.081 209.174C123.026 206.773 122.211 194.597 122.81 192.728C123.409 190.859 120.64 162.835 120.64 162.835L120.188 151.46L103.784 144.809L111.115 129.566C112.102 127.428 112.954 125.23 113.664 122.985C114.934 119.028 120.855 115.14 120.855 115.14C120.855 115.14 126.923 111.256 129.318 111.402C131.712 111.548 134.86 107.965 134.86 107.965C137.185 102.062 139.747 104.735 139.747 104.735C139.747 105.015 139.502 105.141 139.633 105.609C141.424 111.894 152.354 132.564 152.554 132.926L153.902 165.289L155.25 206.245L156.598 250.966Z" fill="white"/>
<path opacity="0.1" d="M152.098 133.848C150.302 133.101 140.789 122.266 140.789 122.266V119.8C140.443 118.987 138.386 119.483 136.717 120.051L137.434 105.072L138.248 105.747C140.032 112.028 151.89 133.487 152.098 133.848Z" fill="black"/>
<path d="M152.55 132.95C150.75 132.203 141.237 121.368 141.237 121.368V118.902C140.891 118.089 138.834 118.585 137.165 119.154L137.886 104.174L138.7 104.849C140.488 111.13 152.35 132.593 152.55 132.95Z" fill="white"/>
<path opacity="0.1" d="M125.058 186.988C125.282 186.988 136.668 185.793 136.668 185.793C136.668 185.793 143.562 199.318 143.11 202.609C142.658 205.899 141.84 208.812 139.066 208.296C136.293 207.78 124.142 208.703 124.142 208.703L125.058 186.988Z" fill="black"/>
<path d="M124.606 186.09C124.83 186.09 136.216 184.895 136.216 184.895C136.216 184.895 143.106 198.424 142.658 201.711C142.21 204.997 141.384 207.914 138.614 207.398C135.845 206.882 123.69 207.805 123.69 207.805L124.606 186.09Z" fill="white"/>
<path d="M133.186 179.74C133.186 179.74 143.636 185.342 143.86 187.053C144.084 188.763 138.541 186.305 137.344 186.009C136.556 185.819 135.754 185.694 134.945 185.635L126.96 185.85L133.186 179.74Z" fill="#CF6F80"/>
<path opacity="0.1" d="M149.182 134.547C149.789 134.547 150.281 134.056 150.281 133.45C150.281 132.844 149.789 132.353 149.182 132.353C148.575 132.353 148.082 132.844 148.082 133.45C148.082 134.056 148.575 134.547 149.182 134.547Z" fill="black"/>
<path d="M149.182 134.1C149.789 134.1 150.281 133.609 150.281 133.003C150.281 132.397 149.789 131.906 149.182 131.906C148.575 131.906 148.082 132.397 148.082 133.003C148.082 133.609 148.575 134.1 149.182 134.1Z" fill="#3F3D56"/>
<path opacity="0.1" d="M151.206 182.031C151.813 182.031 152.305 181.54 152.305 180.934C152.305 180.328 151.813 179.837 151.206 179.837C150.599 179.837 150.106 180.328 150.106 180.934C150.106 181.54 150.599 182.031 151.206 182.031Z" fill="black"/>
<path d="M151.206 181.58C151.813 181.58 152.305 181.089 152.305 180.483C152.305 179.877 151.813 179.386 151.206 179.386C150.599 179.386 150.106 179.877 150.106 180.483C150.106 181.089 150.599 181.58 151.206 181.58Z" fill="#3F3D56"/>
<path opacity="0.1" d="M150.277 158.289C150.885 158.289 151.377 157.798 151.377 157.192C151.377 156.586 150.885 156.095 150.277 156.095C149.67 156.095 149.178 156.586 149.178 157.192C149.178 157.798 149.67 158.289 150.277 158.289Z" fill="black"/>
<path d="M150.277 157.842C150.885 157.842 151.377 157.351 151.377 156.745C151.377 156.139 150.885 155.648 150.277 155.648C149.67 155.648 149.178 156.139 149.178 156.745C149.178 157.351 149.67 157.842 150.277 157.842Z" fill="#3F3D56"/>
<path d="M175.623 185.407C175.623 185.407 176.372 186.529 175.623 187.053C174.874 187.577 175.696 188.844 175.696 188.844C175.696 188.844 173.827 189.937 174.65 190.92C175.472 191.903 174.951 196.344 174.951 196.344L172.703 200.057C172.703 200.057 172.838 202.45 172.846 205.684C172.846 210.73 172.549 217.823 170.903 221.057L171.131 247.59C171.131 247.59 163.26 250.458 156.671 249.585L155.693 207.008C155.693 207.008 157.119 182.864 157.644 178.233C157.951 175.828 158.077 173.404 158.019 170.981C158.019 170.981 157.795 163.733 157.041 160.369C157.041 160.369 156.227 145.796 156.145 141.762C156.109 139.832 156.211 134.202 156.325 128.847C156.451 122.993 156.593 117.472 156.593 117.472L155.107 105.739C155.107 105.739 156.593 105.588 157.041 106.186C157.242 106.373 157.46 106.54 157.693 106.685C160.258 108.416 169.323 113.738 169.323 113.738C169.323 113.738 174.34 115.729 175.542 118.581C176.743 121.433 177.578 123.456 178.16 124.268C178.742 125.081 179.06 128.9 179.06 128.9C179.06 128.9 180.787 135.928 182.135 137.119C183.482 138.309 184.468 145.882 184.468 145.882L172.557 155.226C172.557 155.226 171.51 170.77 171.286 171.371C171.062 171.972 175.623 185.407 175.623 185.407Z" fill="white"/>
<path d="M176.075 185.407C176.075 185.407 176.82 186.529 176.075 187.053C175.33 187.577 176.144 188.844 176.144 188.844C176.144 188.844 174.287 189.949 175.102 190.932C175.916 191.916 175.403 196.356 175.403 196.356L173.155 200.069C173.155 200.069 173.29 202.462 173.302 205.696C173.302 210.742 173.005 217.835 171.359 221.069L171.583 247.602C171.583 247.602 163.7 250.471 157.119 249.597L156.145 207.021C156.145 207.021 157.571 182.876 158.096 178.245C158.404 175.84 158.528 173.416 158.467 170.993C158.467 170.993 158.243 163.745 157.493 160.381C157.493 160.381 156.679 145.809 156.593 141.774C156.557 139.845 156.663 134.214 156.773 128.859C156.899 123.005 157.041 117.484 157.041 117.484L155.079 105.592C155.079 105.592 157.041 105.592 157.493 106.198C157.692 106.387 157.911 106.554 158.145 106.697C160.71 108.428 169.779 113.75 169.779 113.75C169.779 113.75 174.792 115.741 175.994 118.593C177.195 121.445 178.03 123.468 178.616 124.281C179.203 125.093 179.512 128.912 179.512 128.912C179.512 128.912 181.239 135.94 182.587 137.131C183.935 138.321 184.908 145.878 184.908 145.878L172.996 155.222C172.996 155.222 171.95 170.765 171.722 171.367C171.494 171.968 176.075 185.407 176.075 185.407Z" fill="white"/>
<path opacity="0.1" d="M161.81 120.933L162.885 124.061L157.225 129.749C157.351 123.899 157.493 118.373 157.493 118.373L155.531 106.482C155.531 106.482 157.493 106.482 157.945 107.087C158.144 107.276 158.362 107.442 158.597 107.583L163.41 121.437L161.81 120.933Z" fill="black"/>
<path d="M161.358 120.035L162.437 123.163L156.777 128.851C156.903 122.997 157.045 117.476 157.045 117.476L155.079 105.584C155.079 105.584 157.045 105.584 157.493 106.19C157.693 106.378 157.911 106.545 158.145 106.689L162.962 120.539L161.358 120.035Z" fill="white"/>
<path opacity="0.1" d="M161.358 89.0817C161.361 90.5457 161.13 92.0009 160.674 93.3922C160.597 93.4042 160.518 93.4007 160.443 93.3818C160.367 93.363 160.296 93.3292 160.234 93.2825C160.128 89.6261 158.324 86.1932 156.105 83.2722C155.482 82.3902 154.726 81.6092 153.865 80.9564C152.994 80.304 151.911 79.9985 150.827 80.0992C149.605 80.2658 148.526 81.0946 147.292 81.2002C145.664 81.3343 144.206 80.2089 142.589 80.152C141.932 80.1583 141.283 80.3043 140.687 80.5803C140.091 80.8563 139.561 81.256 139.132 81.7527C138.282 82.7551 137.651 83.9228 137.279 85.1816C136.638 87.0904 136.29 89.0845 136.244 91.0968C136.224 92.2344 136.114 93.6604 135.055 94.0748C135.135 93.2382 135.04 92.3942 134.775 91.5962C134.511 90.7983 134.084 90.0638 133.52 89.4393L133.496 89.4149C133.496 89.3011 133.496 89.1955 133.496 89.0817C133.464 87.2363 133.801 85.4031 134.487 83.689C135.173 81.9749 136.194 80.4142 137.491 79.098C138.788 77.7818 140.335 76.7364 142.041 76.0228C143.747 75.3092 145.579 74.9417 147.429 74.9417C149.279 74.9417 151.11 75.3092 152.817 76.0228C154.523 76.7364 156.069 77.7818 157.366 79.098C158.663 80.4142 159.685 81.9749 160.371 83.689C161.057 85.4031 161.394 87.2363 161.362 89.0817H161.358Z" fill="black"/>
<path d="M153.197 67.0094C151.081 66.0163 148.674 65.8285 146.429 66.4813C145.301 66.8144 144.238 67.3547 143.094 67.6269C140.651 68.216 137.8 67.5782 135.703 69.0042C134.538 69.8167 133.838 71.1005 133.186 72.3477L131.557 75.4435C130.669 77.1376 129.774 78.8601 129.403 80.7249C129.032 82.5897 129.256 84.6779 130.441 86.177C131.305 87.2698 132.579 87.9564 133.516 88.9843C134.077 89.6095 134.503 90.3436 134.766 91.1405C135.03 91.9375 135.125 92.7801 135.047 93.6157C136.11 93.2094 136.212 91.7794 136.236 90.6418C136.282 88.6295 136.63 86.6354 137.271 84.7266C137.642 83.4675 138.273 82.2996 139.123 81.2977C139.553 80.8014 140.083 80.402 140.679 80.126C141.275 79.85 141.924 79.7038 142.581 79.6971C144.21 79.7539 145.672 80.8752 147.284 80.7412C148.506 80.6396 149.589 79.8067 150.819 79.6442C151.903 79.5419 152.987 79.8476 153.857 80.5015C154.718 81.1532 155.472 81.9344 156.093 82.8172C158.316 85.7382 160.12 89.163 160.226 92.8275C160.686 93.1647 161.35 92.726 161.578 92.206C161.806 91.6859 161.814 91.0765 162.103 90.5809C162.437 90.0081 163.076 89.7034 163.577 89.2727C164.848 88.1799 165.165 86.3395 165.117 84.6697C165.068 83 164.742 81.3059 165.06 79.6646C165.251 78.657 165.683 77.7145 165.919 76.7191C166.155 75.7238 166.184 74.6066 165.626 73.7493C164.811 72.4899 163.097 72.2421 161.602 72.1243C159.904 71.978 158.385 72.1649 157.302 70.7389C156.794 69.9948 156.221 69.2961 155.592 68.6507C155.376 68.4395 153.197 67.0988 153.197 67.0094Z" fill="#512E4E"/>
<path opacity="0.1" d="M108.936 152.683L104.68 144.833L103.332 156.944C103.332 156.944 104.082 162.323 103.931 163.148C103.78 163.973 107.002 171.367 107.002 171.367C107.002 171.367 117.642 190.274 121.987 191.249L136.668 180.784L132.775 175.852C132.775 175.852 131.427 175.328 131.089 175.852C131.089 175.852 123.861 163.445 123.111 162.547C122.362 161.649 122.509 159.857 122.509 159.857C122.509 159.857 121.385 158.663 121.759 157.541C122.134 156.42 119.589 152.532 119.589 152.532L121.91 150.367L108.936 152.683Z" fill="black"/>
<path d="M104.904 143.94L103.78 144.834L102.432 156.944C102.432 156.944 103.182 162.323 103.031 163.148C102.88 163.973 106.106 171.367 106.106 171.367C106.106 171.367 116.742 190.274 121.087 191.249L135.772 180.784L131.875 175.852C131.875 175.852 130.527 175.328 130.189 175.852C130.189 175.852 122.961 163.445 122.211 162.547C121.462 161.649 121.613 159.857 121.613 159.857C121.613 159.857 120.489 158.663 120.864 157.542C121.238 156.42 118.689 152.532 118.689 152.532L121.01 150.367L104.904 143.94Z" fill="white"/>
<path opacity="0.1" d="M174.65 191.383C175.464 192.371 174.951 196.803 174.951 196.803L172.703 200.516C172.703 200.516 172.838 202.913 172.846 206.143L169.067 207.321C168.725 207.428 168.363 207.451 168.011 207.389C167.658 207.328 167.326 207.183 167.041 206.967C166.756 206.751 166.527 206.471 166.373 206.148C166.219 205.826 166.144 205.472 166.155 205.115L166.807 184.148L175.623 187.512C174.874 188.032 175.696 189.307 175.696 189.307C175.696 189.307 173.827 190.396 174.65 191.383Z" fill="black"/>
<path d="M175.102 190.932C175.916 191.92 175.403 196.356 175.403 196.356L173.155 200.069C173.155 200.069 173.29 202.462 173.302 205.696L169.454 206.895C169.119 206.998 168.765 207.021 168.42 206.96C168.075 206.9 167.749 206.758 167.47 206.546C167.192 206.335 166.967 206.06 166.817 205.745C166.666 205.429 166.592 205.083 166.603 204.733L167.259 183.701L176.079 187.065C175.326 187.585 176.148 188.856 176.148 188.856C176.148 188.856 174.287 189.949 175.102 190.932Z" fill="white"/>
<path d="M178.022 180.938C178.022 180.938 177.423 184.753 175.924 184.977C174.426 185.2 173.754 191.148 172.259 190.937C170.765 190.725 171.754 185.407 171.807 184.375C171.86 183.343 170.178 179.07 171.437 178.099C172.695 177.128 176.678 178.099 176.678 178.099L178.022 180.938Z" fill="#CF6F80"/>
<path opacity="0.1" d="M181.21 151.561L184.036 145.874C184.036 145.874 185.16 150.208 185.16 152.524C185.16 154.84 186.732 155.067 186.732 155.067C186.732 155.067 188.455 157.099 187.547 158.578C186.639 160.056 186.272 163.737 186.272 163.737C186.272 163.737 186.569 170.761 185.221 171.732C183.873 172.703 183.592 175.023 183.592 175.023C183.592 175.023 181.117 179.431 181.194 180.479C181.271 181.527 177.749 188.625 177.749 188.625C177.749 188.625 179.471 179.805 169.433 175.994C169.433 175.994 169.356 173 170.105 172.179C170.854 171.359 172.023 170.985 171.29 166.837C170.557 162.689 171.078 157.732 171.078 156.737C171.078 155.742 173.326 149.534 173.326 149.534L181.21 151.561Z" fill="black"/>
<path d="M182.432 145.061L184.9 145.874C184.9 145.874 186.028 150.208 186.028 152.524C186.028 154.84 187.6 155.067 187.6 155.067C187.6 155.067 189.322 157.099 188.414 158.577C187.506 160.056 187.143 163.737 187.143 163.737C187.143 163.737 187.441 170.761 186.093 171.732C184.745 172.703 184.444 175.023 184.444 175.023C184.444 175.023 181.972 179.431 182.049 180.479C182.126 181.527 178.6 188.625 178.6 188.625C178.6 188.625 180.327 179.805 170.284 175.994C170.284 175.994 170.211 173 170.96 172.179C171.71 171.359 172.878 170.985 172.145 166.837C171.412 162.689 171.934 157.732 171.934 156.737C171.934 155.742 174.182 149.534 174.182 149.534L182.432 145.061Z" fill="white"/>
<path opacity="0.1" d="M127.925 292.483C127.925 292.483 131.859 290.017 134.44 291.808C137.022 293.6 127.925 292.483 127.925 292.483Z" fill="black"/>
<path opacity="0.1" d="M158.491 284.857C158.491 284.857 161.973 284.41 164.897 287.55C167.821 290.691 158.491 284.857 158.491 284.857Z" fill="black"/>
<g opacity="0.1">
<path d="M163.586 88.383C163.085 88.8136 162.441 89.1224 162.107 89.6952C161.822 90.1868 161.814 90.7922 161.586 91.3203C161.358 91.8484 160.694 92.2791 160.234 91.946C160.128 88.2896 158.32 84.8566 156.101 81.9315C155.48 81.0487 154.726 80.2675 153.865 79.6158C152.993 78.9621 151.909 78.6564 150.823 78.7586C149.601 78.9252 148.526 79.7539 147.292 79.8555C145.664 79.9936 144.202 78.8683 142.585 78.8114C141.928 78.8179 141.28 78.9645 140.684 79.2412C140.089 79.518 139.559 79.9186 139.132 80.4161C138.282 81.4165 137.65 82.583 137.279 83.841C136.639 85.7499 136.29 87.7439 136.244 89.7562C136.22 90.8897 136.114 92.3035 135.063 92.726C135.088 93.0261 135.088 93.3277 135.063 93.6279C136.122 93.2216 136.228 91.7916 136.253 90.654C136.298 88.6417 136.647 86.6476 137.287 84.7388C137.659 83.4796 138.29 82.3118 139.14 81.3099C139.568 80.8137 140.098 80.4143 140.694 80.1383C141.289 79.8623 141.937 79.716 142.593 79.7092C144.222 79.7661 145.688 80.8874 147.301 80.7533C148.522 80.6518 149.605 79.8189 150.831 79.6564C151.917 79.5542 153.002 79.8599 153.873 80.5136C154.734 81.1654 155.488 81.9466 156.109 82.8294C158.328 85.7504 160.136 89.1752 160.242 92.8397C160.702 93.1769 161.366 92.7382 161.594 92.2181C161.822 91.6981 161.83 91.0887 162.115 90.5931C162.449 90.0202 163.093 89.7155 163.594 89.2849C164.864 88.1921 165.182 86.3517 165.133 84.6819C165.133 84.6291 165.133 84.5763 165.133 84.5275C165.056 85.9739 164.669 87.4486 163.586 88.383Z" fill="black"/>
<path d="M133.524 88.0946C132.588 87.0667 131.309 86.3802 130.45 85.2914C129.726 84.3275 129.313 83.1673 129.265 81.9641C129.136 83.4676 129.557 84.9667 130.45 86.1851C131.309 87.278 132.588 87.9646 133.524 88.9924C134.423 89.9978 134.963 91.2723 135.059 92.6163C135.122 91.7983 135.018 90.9762 134.754 90.1992C134.49 89.4222 134.072 88.7064 133.524 88.0946Z" fill="black"/>
<path d="M165.927 75.8294C165.687 76.8248 165.259 77.7714 165.064 78.7748C164.948 79.4454 164.906 80.1265 164.938 80.8062C164.951 80.419 164.993 80.0334 165.064 79.6524C165.259 78.6448 165.687 77.7023 165.927 76.707C166.067 76.158 166.113 75.5892 166.061 75.025C166.036 75.296 165.991 75.5649 165.927 75.8294Z" fill="black"/>
</g>
<path opacity="0.1" d="M54.551 309.001C76.4656 309.001 94.231 306.155 94.231 302.643C94.231 299.132 76.4656 296.285 54.551 296.285C32.6363 296.285 14.871 299.132 14.871 302.643C14.871 306.155 32.6363 309.001 54.551 309.001Z" fill="#27CD0D"/>
<path d="M55.8297 180.845H53.2764V238.197H55.8297V180.845Z" fill="#535461"/>
<path d="M71.8743 238.023L71.7155 240.606L71.4875 244.263L71.3938 245.782L71.1698 249.439L71.0721 250.958L70.844 254.615L68.2704 296.082C68.1585 297.866 67.3694 299.541 66.0636 300.765C64.7579 301.989 63.0336 302.671 61.2417 302.672H47.8603C46.0688 302.671 44.345 301.989 43.0399 300.765C41.7348 299.54 40.9465 297.866 40.8356 296.082L38.2742 254.586L38.0461 250.93L37.9525 249.41L37.7244 245.754L37.6308 244.234L37.4027 240.578L37.2398 237.994C37.2115 237.497 37.2854 236.999 37.4569 236.531C37.6283 236.063 37.8938 235.636 38.237 235.274C38.5802 234.912 38.9939 234.624 39.4526 234.427C39.9114 234.231 40.4056 234.13 40.9049 234.131H68.2745C68.7719 234.135 69.2631 234.241 69.7179 234.442C70.1727 234.643 70.5813 234.935 70.9186 235.299C71.256 235.664 71.5148 236.094 71.6792 236.562C71.8435 237.031 71.91 237.528 71.8743 238.023Z" fill="#3F3D56"/>
<path d="M71.7155 240.607L71.4875 244.251H37.6145L37.3864 240.607H71.7155Z" fill="#9D9CB5"/>
<path d="M71.3938 245.77L71.1698 249.418H37.9362L37.7082 245.77H71.3938Z" fill="#9D9CB5"/>
<path d="M71.0721 250.942L70.8481 254.586H38.2579L38.0298 250.942H71.0721Z" fill="#9D9CB5"/>
<path d="M33.4893 202.34C48.3571 213.074 54.5632 229.861 54.5632 229.861C54.5632 229.861 36.6453 229.247 21.7734 218.514C6.90157 207.78 0.707672 190.997 0.707672 190.997C0.707672 190.997 18.6174 191.607 33.4893 202.34Z" fill="#27CD0D"/>
<path d="M0.695465 190.997C0.695465 190.997 19.2975 201.296 25.2634 209.824C31.2292 218.351 54.5632 229.861 54.5632 229.861" stroke="#535461" stroke-width="2" stroke-miterlimit="10"/>
<path d="M43.0876 180.719C51.1791 186.557 54.5632 195.694 54.5632 195.694C54.5632 195.694 44.8101 195.361 36.7145 189.523C28.6189 183.685 25.243 174.544 25.243 174.544C25.243 174.544 34.992 174.877 43.0876 180.719Z" fill="#27CD0D"/>
<path d="M25.243 174.544C25.243 174.544 35.3666 180.15 38.6122 184.79C41.8578 189.429 54.5632 195.694 54.5632 195.694" stroke="#535461" stroke-width="2" stroke-miterlimit="10"/>
<path d="M66.3116 195.231C57.0147 205.424 55.0478 218.745 55.0478 218.745C55.0478 218.745 68.1564 215.536 77.4452 205.339C86.734 195.141 88.709 181.824 88.709 181.824C88.709 181.824 75.6086 185.038 66.3116 195.231Z" fill="#27CD0D"/>
<path d="M88.7172 181.828C88.7172 181.828 76.6063 192.277 73.5277 199.476C70.449 206.675 55.0478 218.745 55.0478 218.745" stroke="#535461" stroke-width="2" stroke-miterlimit="10"/>
<path d="M407.591 191.643C407.591 191.643 400.867 158.273 403.441 154.121C403.441 154.121 403.535 150.261 403.38 145.341C403.38 145.154 403.38 144.968 403.38 144.777C403.833 145.078 404.305 145.349 404.793 145.589C407.164 146.805 409.887 147.155 412.49 146.58L410.453 144.318C409.965 143.777 409.456 143.192 409.35 142.477C409.244 141.762 409.537 141.124 409.79 140.486C411.724 135.611 411.826 129.481 408.1 125.759C404.952 122.631 404.186 118.593 400.77 115.737C398.273 113.645 396.901 110.577 395.606 107.611C394.511 105.105 393.407 102.578 392.78 99.9209C392.291 97.8449 392.096 95.6957 391.424 93.6685C390.752 91.6412 389.494 89.6708 387.527 88.7648C386.826 88.4439 386.048 88.2611 385.409 87.8345C384.57 87.2698 384.065 86.3516 383.459 85.5472C380.376 81.4846 370.053 83.8775 365.166 85.5269C363.837 85.9423 362.607 86.6223 361.55 87.5257L361.595 87.4526C361.631 87.3917 361.676 87.3307 361.717 87.2698C361.182 87.7013 360.72 88.2157 360.348 88.7933C359.636 89.9186 359.339 91.2309 358.744 92.4497C358.027 93.8919 354.041 97.918 355.755 99.539C355.875 99.6479 356.013 99.7358 356.162 99.799C356.806 100.066 357.514 100.137 358.198 100.002L358.125 100.177C357.54 101.607 357.239 103.137 357.241 104.682C357.241 111.357 362.759 116.769 369.572 116.769C370.853 116.77 372.126 116.574 373.347 116.188C373.376 116.342 373.4 116.497 373.429 116.651C373.429 116.712 373.449 116.773 373.457 116.834L373.241 117.134C373.23 117.116 373.218 117.098 373.205 117.082L366.811 125.995C365.834 126.682 360.206 130.744 359.888 133.791C359.554 137.127 359.22 141.031 359.22 141.031L359.176 141.868C358.896 142.101 358.569 142.27 358.218 142.365C357.866 142.46 357.499 142.477 357.14 142.416C355.144 142.091 355.144 149.729 355.144 149.729C355.144 149.729 353.817 150.948 352.904 149.892C351.992 148.835 349.581 152.414 349.581 152.414L334.473 153.064L334.127 153.085L333.313 150.57C333.225 150.305 333.036 150.085 332.787 149.958C332.537 149.831 332.248 149.807 331.981 149.892C331.918 149.912 331.857 149.938 331.798 149.969L331.741 150.001L331.635 150.074L331.582 150.123C331.553 150.15 331.526 150.178 331.501 150.208L331.452 150.265L331.427 150.29C331.333 150.419 331.271 150.569 331.246 150.727C331.22 150.885 331.232 151.047 331.281 151.2L331.981 153.357C329.065 153.942 326.085 155.591 328.516 160.133L316.193 157.862L320.18 161.202L340.761 165.439C340.488 165.927 340.667 166.634 341.518 167.629C345.183 171.923 351.862 173.089 354.55 173.39C355.259 174.974 356.146 176.473 357.192 177.859L356.96 182.137C356.96 182.137 350.156 214.744 348.91 216.397C349.539 215.686 350.114 214.93 350.632 214.134C348.657 220.834 345.896 230.003 345.171 231.376C344.007 233.57 342.927 242.447 344.255 243.016C344.662 243.19 345.827 243.105 347.488 242.979V243.714L347.415 271.58C347.415 271.58 347.749 288.672 346.833 290.301C345.916 291.93 345.672 295.347 345.672 295.347C345.672 295.347 342.007 302.087 339.104 304.796C339.084 304.817 339.062 304.836 339.038 304.853L338.949 304.219C338.949 304.219 335.459 308.615 327.738 308.367C327.738 308.367 323.091 311.382 329.982 311.544C336.872 311.707 345.672 311.301 345.672 311.301C345.672 311.301 351.817 301.957 356.964 303.175V310.257H358.54V303.062C359.271 302.582 359.897 301.959 360.379 301.23C360.861 300.502 361.19 299.683 361.346 298.824C361.481 297.939 361.382 297.034 361.059 296.198C360.737 295.362 360.201 294.625 359.506 294.059C359.193 293.777 358.942 293.434 358.769 293.051C358.596 292.667 358.504 292.253 358.5 291.832L358.443 291.881C358.443 291.739 358.406 291.593 358.39 291.442C357.938 287.786 357.372 280.242 359.371 274.66C362.112 267.006 362.942 256.345 360.947 249.999C360.303 247.971 359.774 245.908 359.363 243.82C359.314 243.556 359.269 243.304 359.229 243.068C360.593 243.253 361.943 243.524 363.272 243.881C367.894 245.153 378.006 245.388 386.639 245.319C386.659 245.555 386.684 245.803 386.712 246.05C386.866 247.773 387.188 249.477 387.673 251.137C388.757 254.387 389.253 268.716 389.253 268.716C389.253 268.716 390.65 280.498 389.889 285.292C389.481 287.957 389.074 290.634 388.842 293.323V293.376C388.842 293.376 386.553 299.876 384.88 303.407C384.839 303.496 384.794 303.586 384.753 303.671C384.307 303.712 383.868 303.809 383.446 303.959C383.446 303.959 381.202 308.428 378.967 309.168C376.731 309.907 377.472 312.341 382.534 311.447C387.596 310.553 395.24 309.822 395.24 309.822L395.569 305.264L397.125 303.322L396.718 307.868L398.375 307.543L398.155 302.013L400.7 298.836C400.7 298.836 403.775 296.106 399.206 290.736V290.853C399.157 290.776 399.112 290.695 399.059 290.618V290.593C398.302 289.423 397.699 287.242 398.803 283.37C400.798 276.374 401.959 270.024 401.959 270.024C401.959 270.024 406.414 253.014 401.059 244.966H401.295C400.746 243.833 400.358 242.63 400.143 241.391C400.115 241.244 400.091 241.094 400.069 240.94C404.031 240.712 407.921 239.997 411.093 238.453C411.081 238.437 409.171 198.07 407.591 191.643ZM357.286 163.489V163.57L356.472 163.611L357.286 163.489ZM354.493 163.875C354.359 163.905 354.233 163.965 354.126 164.05C353.776 164.544 353.556 165.118 353.487 165.72L352.216 165.435C352.216 165.435 351.324 165.244 350.042 165.029L349.435 164.42C351.104 164.281 352.839 164.078 354.493 163.875Z" fill="url(#paint1_linear_737_798)"/>
<path d="M396.53 302.07L396.046 307.827L397.671 307.502L397.426 301.258L396.53 302.07Z" fill="#1D2366"/>
<path d="M359.461 274.737C357.502 280.303 358.056 287.814 358.496 291.463C358.658 292.812 358.809 293.632 358.809 293.632C358.809 293.632 355.881 300.287 355.637 300.539C355.393 300.791 347.02 305.889 347.02 305.889L341.168 309.298C341.168 309.298 335.231 306.702 338.077 305.808C338.659 305.575 339.183 305.219 339.613 304.764C342.463 302.062 346.043 295.347 346.043 295.347C346.043 295.347 346.287 291.938 347.183 290.317C348.079 288.696 347.753 271.661 347.753 271.661L347.822 243.893V240.273L358.96 240.355C359.03 241.583 359.191 242.806 359.44 244.011C359.84 246.092 360.358 248.148 360.992 250.17C362.955 256.504 362.14 267.111 359.461 274.737Z" fill="#FFB0B1"/>
<path opacity="0.1" d="M358.809 293.632C358.809 293.632 355.881 300.287 355.637 300.539C355.393 300.791 347.02 305.889 347.02 305.889L341.168 309.298C341.168 309.298 335.231 306.702 338.077 305.808C338.659 305.575 339.183 305.219 339.613 304.764L339.865 306.539L341.816 306.458L358.512 291.471C358.658 292.812 358.809 293.632 358.809 293.632Z" fill="black"/>
<path d="M358.606 291.849L341.816 306.937L339.865 307.019L339.458 304.175C339.458 304.175 336.045 308.554 328.463 308.311C328.463 308.311 323.91 311.313 330.658 311.475C337.405 311.638 346.022 311.232 346.022 311.232C346.022 311.232 352.041 301.888 357.079 303.106V310.163H358.626V303.041C359.345 302.558 359.96 301.935 360.431 301.209C360.903 300.482 361.222 299.669 361.371 298.816C361.505 297.938 361.41 297.04 361.095 296.209C360.781 295.378 360.257 294.642 359.575 294.071C359.27 293.786 359.027 293.442 358.86 293.06C358.694 292.678 358.607 292.265 358.606 291.849Z" fill="#1D2366"/>
<path d="M398.078 283.415C396.995 287.274 397.585 289.448 398.326 290.614V290.638C399.277 292.078 399.938 293.688 400.273 295.379L400.338 295.745L392.698 306.856L388.553 308.481C388.553 308.481 381.887 306.21 383.104 305.56C383.41 305.402 383.886 304.557 384.432 303.391C386.061 299.877 388.309 293.393 388.309 293.393V293.34C388.545 290.662 388.919 287.993 389.335 285.336C390.08 280.555 388.712 268.818 388.712 268.818C388.712 268.818 388.223 254.545 387.164 251.299C386.686 249.649 386.369 247.957 386.215 246.245C385.996 244.214 385.947 242.54 385.947 242.54C385.947 242.54 390.337 236.446 398.383 243.028C399.027 243.553 399.593 244.165 400.065 244.848C405.624 252.738 401.148 270.118 401.148 270.118C401.148 270.118 400.029 276.439 398.078 283.415Z" fill="#FFB0B1"/>
<path opacity="0.1" d="M400.35 295.745L392.711 306.856L388.565 308.481C388.565 308.481 381.899 306.21 383.116 305.56C383.422 305.402 383.898 304.557 384.444 303.391C387.266 303.366 388.728 306.048 388.728 306.048L392.303 305.479C392.303 305.479 397.019 296.232 398.078 295.668C399.137 295.103 398.241 291.446 398.241 291.446V290.516C398.269 290.549 398.294 290.585 398.326 290.618V290.642C399.277 292.082 399.938 293.692 400.273 295.383L400.35 295.745Z" fill="black"/>
<path d="M388.972 306.287C388.972 306.287 386.936 302.558 383.035 303.935C383.035 303.935 380.84 308.404 378.645 309.127C376.45 309.85 377.183 312.288 382.143 311.398C387.103 310.508 394.58 309.773 394.58 309.773L394.906 305.227L399.947 298.82C399.947 298.82 402.952 296.102 398.481 290.752V291.682C398.481 291.682 399.377 295.339 398.318 295.903C397.259 296.468 392.56 305.719 392.56 305.719L388.972 306.287Z" fill="#1D2366"/>
<path opacity="0.1" d="M358.972 240.346C359.042 241.575 359.203 242.797 359.453 244.003C354.867 243.333 350.612 243.666 347.822 243.885V240.265L358.972 240.346Z" fill="black"/>
<path opacity="0.1" d="M400.517 245.86C400.517 245.86 394.002 246.176 386.232 246.241C386.012 244.21 385.963 242.536 385.963 242.536C385.963 242.536 390.353 236.442 398.4 243.024C399.043 243.549 399.609 244.161 400.081 244.844C400.208 245.19 400.353 245.529 400.517 245.86Z" fill="black"/>
<path d="M400.517 245.128C400.517 245.128 371.979 246.505 363.281 244.072C354.582 241.638 345.961 243.747 344.662 243.182C343.363 242.617 344.418 233.773 345.558 231.583C346.698 229.394 352.953 207.248 352.953 207.248L358.972 175.941L365.313 174.198L365.761 174.072L376.809 171.034L384.904 168.803C384.904 168.803 401.002 231.502 399.621 236.125C399.12 237.896 399.039 239.758 399.385 241.565C399.596 242.799 399.977 243.998 400.517 245.128Z" fill="#1D2366"/>
<path d="M337.992 154.531C337.992 154.531 332.291 160.625 336.607 164.021C340.924 167.418 343.762 164.346 343.762 164.346L337.992 154.531Z" fill="#C7DAF5"/>
<path opacity="0.1" d="M337.992 154.531C337.992 154.531 332.291 160.625 336.607 164.021C340.924 167.418 343.762 164.346 343.762 164.346L337.992 154.531Z" fill="black"/>
<path d="M384.053 114.465C384.053 114.465 383.385 115.099 382.379 116.033C380.946 117.37 378.824 119.324 376.943 120.961C374.337 123.224 372.186 124.886 372.956 123.468C373.726 122.05 373.579 119.58 373.196 117.268C373.168 117.114 373.143 116.96 373.115 116.809C372.798 115.112 372.378 113.435 371.857 111.788C371.857 111.788 376.067 106.36 378.397 104.219C379.264 103.407 379.871 103.074 379.907 103.638C379.948 104.398 380.518 106.076 381.227 107.855C381.247 107.912 381.268 107.965 381.292 108.022C381.764 109.241 382.298 110.492 382.766 111.573C383.483 113.23 384.053 114.465 384.053 114.465Z" fill="#FFB0B1"/>
<path opacity="0.1" d="M381.292 108.022C380.896 110.145 379.936 112.123 378.512 113.75C377.088 115.377 375.252 116.592 373.196 117.268C372.873 115.414 372.425 113.583 371.857 111.788C371.857 111.788 379.785 101.57 379.907 103.638C379.936 104.422 380.555 106.161 381.292 108.022Z" fill="black"/>
<path opacity="0.1" d="M372.406 119.999L373.433 118.556C373.433 118.556 374.113 122.692 376.613 120.868C379.113 119.044 379.236 134.596 379.236 134.596L376.552 174.625L357.16 173.467L357.71 154.125L359.905 144.374L365.333 130.2L368.562 125.516L372.406 119.999Z" fill="black"/>
<path d="M379.236 134.843L376.792 171.038L376.536 174.873L365.724 174.227L365.317 174.202L357.172 173.715L357.722 154.369L359.917 144.618L365.345 130.444L368.574 125.759L372.419 120.222L373.445 118.784C373.445 118.784 374.125 122.92 376.625 121.095L376.678 121.059C379.122 119.515 379.236 134.843 379.236 134.843Z" fill="#1D2366"/>
<path d="M360.19 141.23C360.19 141.23 359.216 143.261 357.262 142.932C355.307 142.603 355.311 150.245 355.311 150.245C355.311 150.245 354.012 151.464 353.116 150.408C352.22 149.351 349.858 152.922 349.858 152.922L335.06 153.572C335.06 153.572 341.645 156.575 340.354 165.659C340.354 165.659 362.71 164.277 363.443 162.169C364.176 160.06 360.19 141.23 360.19 141.23Z" fill="white"/>
<path opacity="0.03" d="M360.19 141.23C360.19 141.23 359.216 143.261 357.262 142.932C355.307 142.603 355.311 150.245 355.311 150.245C355.311 150.245 354.012 151.464 353.116 150.408C352.22 149.351 349.858 152.922 349.858 152.922L335.06 153.572C335.06 153.572 341.645 156.575 340.354 165.659C340.354 165.659 362.71 164.277 363.443 162.169C364.176 160.06 360.19 141.23 360.19 141.23Z" fill="black"/>
<path d="M317.183 158.346L321.084 161.669L353.198 168.401L349.215 164.346L317.183 158.346Z" fill="white"/>
<path d="M372.467 121.278C371.934 122.091 370.407 126.251 369.132 129.883C368.069 132.91 367.182 135.571 367.182 135.571C367.182 135.571 365.109 149.034 364.05 151.468C362.991 153.901 363.566 163.392 363.566 163.392L359.62 186.829C359.62 186.829 357.832 198.916 355.071 206.135C352.346 213.24 349.313 216.572 349.219 216.677C350.441 215.028 357.099 182.551 357.099 182.551L359.298 141.592C359.298 141.592 359.62 137.699 359.945 134.372C360.271 131.045 366.868 126.503 366.868 126.503L373.229 117.48C373.868 118.333 373.441 119.82 372.467 121.278Z" fill="white"/>
<path d="M355.881 173.918C355.881 173.918 346.515 173.512 341.979 168.076C337.442 162.64 352.465 165.906 352.465 165.906L356.37 166.8L355.881 173.918Z" fill="#FFB0B1"/>
<path opacity="0.1" d="M399.621 236.129C399.12 237.9 399.039 239.762 399.385 241.569C389.168 242.293 378.238 239.538 378.238 239.538C376.202 241.407 370.839 244.161 370.839 244.161L367.915 208.004C366.046 203.129 365.313 177.587 365.313 177.587C365.313 177.587 365.48 176.25 365.72 174.247C365.72 174.198 365.72 174.146 365.74 174.097C366.469 168.503 367.915 158.001 368.623 156.583C369.601 154.633 365.618 149.445 365.618 149.445L367.43 134.027L367.65 132.166C371.47 130.464 374.398 125.028 374.398 125.028L376.646 121.1C379.089 119.535 379.215 134.864 379.215 134.864L376.772 171.058L384.868 168.828C384.868 168.828 401.002 231.506 399.621 236.129Z" fill="black"/>
<path d="M410.107 238.628C398.97 244.145 378.727 239.034 378.727 239.034C376.69 240.903 371.327 243.658 371.327 243.658L368.399 207.5C366.534 202.625 365.801 177.083 365.801 177.083C365.801 177.083 368.155 158.025 369.132 156.079C369.417 155.51 369.279 154.665 368.941 153.755C367.279 149.424 366.668 144.761 367.157 140.149L367.939 133.523L368.155 131.667C371.979 129.96 374.907 124.524 374.907 124.524L376.943 120.965L380.689 114.408L382.465 111.305L382.766 111.577L385.067 113.657C385.067 113.657 386.044 114.469 387.51 115.688C390.699 118.369 396.209 123.09 399.051 125.979C401.552 128.522 402.342 138.415 402.57 145.861C402.72 150.765 402.631 154.608 402.631 154.608C400.11 158.748 406.703 191.985 406.703 191.985C408.238 198.408 410.107 238.628 410.107 238.628Z" fill="white"/>
<path opacity="0.03" d="M388.728 124.443C388.728 124.443 381.084 138.959 381.972 144.476C382.86 149.993 385.385 156.237 384.167 157.696C383.749 158.248 383.208 158.697 382.587 159.006C381.966 159.316 381.282 159.478 380.588 159.479C379.366 159.561 376.108 161.832 376.108 162.075C376.108 162.319 373.099 162.319 370.407 163.457C367.715 164.594 363.741 165.24 363.741 165.24C363.741 165.24 356.003 164.996 355.283 165.728C354.562 166.459 353.821 170.834 355.364 174.324C356.907 177.814 358.622 180.418 359.917 180.894C361.212 181.369 369.43 178.623 376.096 177.973C382.762 177.323 389.999 172.053 389.999 172.053C389.999 172.053 397.968 169.209 399.365 164.428C400.761 159.646 397.658 133.365 397.658 133.365C397.658 133.365 395.313 121.116 388.728 124.443Z" fill="black"/>
<path opacity="0.03" d="M387.751 123.224C387.751 123.224 380.107 137.744 381.003 143.257C381.899 148.77 384.415 155.019 383.194 156.481C382.777 157.034 382.237 157.483 381.617 157.793C380.996 158.102 380.312 158.264 379.618 158.265C378.397 158.346 375.139 160.617 375.139 160.861C375.139 161.104 372.129 161.104 369.438 162.238C366.746 163.371 362.771 164.021 362.771 164.021C362.771 164.021 355.034 163.778 354.317 164.509C353.601 165.24 352.851 169.62 354.399 173.106C355.946 176.591 357.657 179.2 358.952 179.675C360.247 180.15 368.464 177.404 375.131 176.758C381.797 176.112 389.033 170.835 389.033 170.835C389.033 170.835 396.999 167.991 398.379 163.213C399.76 158.435 396.673 132.146 396.673 132.146C396.673 132.146 394.335 119.901 387.751 123.224Z" fill="black"/>
<path d="M388.488 123.712C388.488 123.712 380.844 138.232 381.74 143.745C382.636 149.258 385.153 155.506 383.935 156.965C383.518 157.519 382.978 157.969 382.357 158.279C381.735 158.59 381.05 158.752 380.356 158.752C379.134 158.833 375.876 161.104 375.876 161.344C375.876 161.584 372.871 161.588 370.175 162.725C367.479 163.863 363.509 164.509 363.509 164.509C363.509 164.509 355.771 164.265 355.051 164.996C354.33 165.728 353.589 170.107 355.132 173.593C356.675 177.079 358.39 179.687 359.685 180.162C360.98 180.638 369.198 177.891 375.864 177.241C382.53 176.591 389.766 171.322 389.766 171.322C389.766 171.322 397.736 168.478 399.133 163.696C400.529 158.915 397.447 132.633 397.447 132.633C397.447 132.633 395.069 120.405 388.488 123.712Z" fill="white"/>
<path opacity="0.1" d="M388.321 162.656C388.321 162.656 382.212 161.438 384.338 163.469C386.464 165.5 386.452 167.28 389.054 167.198C391.656 167.117 388.321 162.656 388.321 162.656Z" fill="black"/>
<path opacity="0.1" d="M398.644 206.362C398.644 206.362 395.883 208.227 401.165 212.525C406.446 216.824 398.644 206.362 398.644 206.362Z" fill="black"/>
<path opacity="0.1" d="M393.374 221.691C393.374 221.935 392.397 230.629 396.054 232.802C399.711 234.976 393.374 221.691 393.374 221.691Z" fill="black"/>
<path d="M335.312 153.552C332.364 153.654 325.995 154.551 329.298 160.698C332.217 166.138 337.124 162.502 339.885 159.743C339.212 157.172 337.575 154.956 335.312 153.552Z" fill="#FFB0B1"/>
<path opacity="0.1" d="M387.51 115.936C384.383 118.069 381.76 119.869 381.247 120.242C379.846 121.278 377.175 127.36 375.453 130.464C374.08 132.962 369.621 133.604 367.939 133.763L368.155 131.906C371.979 130.2 374.907 124.764 374.907 124.764L382.465 111.544L385.067 113.905C385.067 113.905 386.044 114.717 387.51 115.936Z" fill="black"/>
<path d="M387.51 115.692C384.383 117.825 381.76 119.625 381.247 120.003C379.846 121.035 377.175 127.116 375.453 130.22C374.08 132.719 369.621 133.361 367.939 133.519L368.155 131.662C371.979 129.956 374.907 124.52 374.907 124.52L382.465 111.3L385.067 113.653C385.067 113.653 386.044 114.457 387.51 115.692Z" fill="#DCE7FF"/>
<path d="M381.492 105.34C381.493 107.779 380.752 110.161 379.366 112.17C377.729 114.545 375.293 116.256 372.499 116.992C369.706 117.729 366.741 117.442 364.141 116.184C361.542 114.926 359.48 112.779 358.331 110.135C357.182 107.49 357.022 104.522 357.878 101.769C358.735 99.0163 360.553 96.6611 363.001 95.1309C365.45 93.6007 368.367 92.9968 371.224 93.4289C374.08 93.8609 376.687 95.3003 378.571 97.4857C380.455 99.6712 381.491 102.458 381.492 105.34Z" fill="#FFB0B1"/>
<path opacity="0.1" d="M402.57 145.865C400.916 144.851 399.569 143.407 398.672 141.689C397.992 140.348 397.54 138.801 396.38 137.85C395.333 136.997 393.936 136.79 392.633 136.408C388.349 135.144 384.758 131.244 384.623 126.791C384.558 124.695 385.214 122.603 384.916 120.527C384.747 119.352 384.279 118.24 383.556 117.297C383.197 116.846 382.804 116.424 382.379 116.033C381.809 115.497 381.211 114.977 380.689 114.408C380.361 114.056 380.074 113.668 379.834 113.251C379.641 112.909 379.484 112.548 379.366 112.174C378.551 109.688 379.293 106.738 378.397 104.223L378.348 104.085C378.01 103.191 377.322 102.298 376.365 102.229C375.408 102.159 374.589 102.952 373.677 103.305C371.767 104.045 369.707 102.785 368.114 101.501C366.522 100.218 364.726 98.7509 362.702 99.0353C361.362 99.2262 360.304 100.136 359.07 100.608C358.791 100.715 358.504 100.798 358.211 100.855C359.255 98.2573 361.173 96.1032 363.637 94.7631C366.1 93.4229 368.954 92.9804 371.709 93.5116C374.463 94.0428 376.947 95.5145 378.732 97.6739C380.517 99.8333 381.493 102.545 381.492 105.345C381.493 106.19 381.404 107.033 381.227 107.859C381.247 107.916 381.268 107.969 381.292 108.026C381.764 109.245 382.298 110.496 382.766 111.577L385.067 113.657C385.067 113.657 386.044 114.469 387.51 115.688C390.699 118.369 396.209 123.09 399.051 125.979C401.552 128.53 402.333 138.419 402.57 145.865Z" fill="black"/>
<path d="M358.927 93.1851C359.51 92.0028 359.799 90.6784 360.495 89.5571C361.517 87.9321 363.301 86.892 365.133 86.2623C369.918 84.6169 380.03 82.2281 383.051 86.2623C383.646 87.0748 384.139 87.9768 384.961 88.5374C385.588 88.964 386.346 89.1468 387.034 89.4678C388.96 90.3697 390.19 92.336 390.846 94.3429C391.501 96.3499 391.697 98.5031 392.177 100.571C392.792 103.224 393.871 105.739 394.946 108.237C396.213 111.187 397.557 114.246 400 116.33C403.335 119.174 404.072 123.2 407.167 126.32C410.832 130.025 410.714 136.139 408.825 140.994C408.576 141.632 408.295 142.298 408.393 142.977C408.491 143.655 408.996 144.273 409.472 144.813L411.476 147.068C406.735 148.21 401.372 145.74 399.165 141.405C398.485 140.064 398.033 138.52 396.868 137.565C395.826 136.712 394.425 136.509 393.126 136.127C388.842 134.86 385.25 130.956 385.116 126.503C385.051 124.411 385.706 122.318 385.409 120.246C385.244 119.064 384.774 117.944 384.045 116.996C382.925 115.538 381.235 114.559 380.323 112.934C378.779 110.216 379.952 106.685 378.841 103.768C378.498 102.874 377.814 101.981 376.857 101.912C375.9 101.843 375.082 102.635 374.166 102.988C372.26 103.728 370.199 102.472 368.607 101.184C367.015 99.8966 365.219 98.434 363.191 98.7225C361.851 98.9094 360.796 99.8194 359.563 100.295C358.65 100.644 356.802 100.957 356.003 100.189C354.317 98.6412 358.223 94.6314 358.927 93.1851Z" fill="#591D4B"/>
<path opacity="0.1" d="M400.297 140.064C399.613 138.723 399.165 137.18 398.001 136.229C396.958 135.376 395.557 135.169 394.254 134.787C389.974 133.523 386.382 129.619 386.244 125.166C386.179 123.074 386.834 120.978 386.541 118.906C386.371 117.73 385.901 116.618 385.177 115.676C384.053 114.217 382.363 113.238 381.455 111.613C379.912 108.899 381.084 105.369 379.969 102.448C379.631 101.558 378.942 100.664 377.989 100.591C377.037 100.518 376.21 101.319 375.298 101.672C373.392 102.411 371.327 101.152 369.739 99.8681C368.151 98.5843 366.347 97.1177 364.323 97.4021C362.983 97.5931 361.924 98.5031 360.695 98.9744C359.782 99.3237 357.93 99.6406 357.131 98.8728C355.454 97.2477 359.359 93.246 360.059 91.8078C360.642 90.6215 360.931 89.3012 361.631 88.1799C361.668 88.1189 361.709 88.058 361.749 87.9971C361.225 88.4301 360.773 88.9429 360.41 89.5165C359.713 90.6378 359.424 91.9541 358.842 93.1444C358.137 94.5826 354.232 98.5965 355.914 100.209C356.728 100.981 358.561 100.664 359.473 100.315C360.695 99.8397 361.762 98.9297 363.101 98.7428C365.137 98.4543 366.929 99.9209 368.517 101.205C370.106 102.489 372.182 103.748 374.08 103.009C374.992 102.655 375.79 101.859 376.768 101.932C377.745 102.005 378.397 102.895 378.751 103.789C379.863 106.706 378.69 110.236 380.233 112.954C381.145 114.551 382.835 115.55 383.955 117.017C384.684 117.964 385.154 119.084 385.32 120.267C385.617 122.339 384.961 124.431 385.026 126.523C385.161 130.992 388.752 134.88 393.036 136.148C394.327 136.53 395.736 136.733 396.779 137.586C397.948 138.541 398.408 140.084 399.076 141.425C401.283 145.76 406.646 148.23 411.386 147.088L410.441 146.024C406.332 146.085 402.175 143.753 400.297 140.064Z" fill="black"/>
<path opacity="0.1" d="M372.223 121.522C371.69 122.335 370.163 126.495 368.888 130.127C367.695 129.664 366.612 126.71 366.612 126.71L372.972 117.683C373.624 118.577 373.196 120.06 372.223 121.522Z" fill="black"/>
<path d="M372.468 121.278C371.934 122.091 370.407 126.251 369.132 129.883C367.939 129.424 366.856 126.466 366.856 126.466L373.217 117.443C373.868 118.333 373.441 119.82 372.468 121.278Z" fill="#DCE7FF"/>
<path d="M335.483 162.782L331.957 151.687C331.915 151.557 331.899 151.42 331.911 151.285C331.922 151.149 331.96 151.016 332.023 150.895C332.086 150.774 332.172 150.666 332.277 150.578C332.381 150.491 332.502 150.424 332.633 150.383C332.895 150.301 333.179 150.326 333.424 150.453C333.668 150.579 333.852 150.796 333.936 151.058L337.462 162.14L337.112 164.46L335.483 162.782Z" fill="#BE8B87"/>
<path opacity="0.1" d="M332.291 150.712C332.554 150.629 332.839 150.654 333.084 150.78C333.329 150.906 333.514 151.125 333.598 151.387L337.124 162.47L336.86 164.208L337.116 164.476L337.467 162.157L333.92 151.074C333.835 150.813 333.651 150.595 333.407 150.469C333.163 150.343 332.879 150.318 332.616 150.399C332.396 150.471 332.205 150.614 332.075 150.806C332.144 150.769 332.216 150.737 332.291 150.712Z" fill="white"/>
<path d="M335.483 162.782L337.462 162.157L337.173 164.058L337.112 164.476L336.534 163.875L335.483 162.782Z" fill="#EFC8C4"/>
<path d="M336.534 163.875C336.568 163.832 336.611 163.796 336.66 163.77C336.689 163.752 336.722 163.742 336.756 163.742C336.79 163.742 336.823 163.752 336.852 163.77C336.879 163.803 336.903 163.84 336.921 163.879C336.948 163.924 336.984 163.962 337.028 163.991C337.072 164.02 337.121 164.039 337.173 164.046L337.112 164.452L336.534 163.875Z" fill="#727A9C"/>
<path d="M331.936 155.628C331.936 155.628 339.01 155.587 337.344 158.59C335.679 161.592 333.077 161.953 333.077 161.953L331.936 155.628Z" fill="#FFB0B1"/>
<path d="M287.944 20.8901H287.638C275.487 20.8901 264.74 27.3051 258.559 36.771C252.377 27.3051 241.63 20.8901 229.479 20.8901H229.173C220.054 20.9768 211.337 24.6505 204.917 31.1129C198.498 37.5752 194.894 46.304 194.889 55.4024C194.889 66.7006 199.849 82.7318 209.521 95.9232C227.947 121.059 258.559 143.05 258.559 143.05C258.559 143.05 289.17 121.063 307.593 95.9232C317.268 82.7318 322.224 66.7006 322.224 55.4024C322.219 46.3047 318.616 37.5765 312.197 31.1143C305.778 24.6521 297.063 20.9779 287.944 20.8901ZM283.574 97.8571C282.19 97.8518 280.84 97.4292 279.702 96.6447C278.563 95.8602 277.688 94.7505 277.193 93.4613H269.928C269.45 93.4583 268.984 93.3064 268.597 93.0267C268.209 92.747 267.919 92.3535 267.766 91.9012L265.534 85.1938L258.473 109.809C258.336 110.283 258.048 110.7 257.653 110.996C257.258 111.293 256.777 111.454 256.282 111.455H256.14C255.624 111.43 255.132 111.229 254.747 110.886C254.361 110.543 254.105 110.078 254.022 109.57L246.745 65.9043L241.427 91.7428C241.305 92.2336 241.021 92.6696 240.622 92.9811C240.223 93.2925 239.73 93.4616 239.224 93.4613H228.99C228.683 93.4742 228.377 93.4251 228.09 93.3169C227.802 93.2088 227.54 93.0437 227.318 92.8317C227.097 92.6198 226.92 92.3653 226.8 92.0835C226.679 91.8018 226.617 91.4986 226.617 91.1923C226.617 90.886 226.679 90.5828 226.8 90.3011C226.92 90.0193 227.097 89.7648 227.318 89.5528C227.54 89.3409 227.802 89.1758 228.09 89.0676C228.377 88.9594 228.683 88.9103 228.99 88.9233H237.432L244.965 54.1836C245.089 53.6699 245.388 53.2151 245.81 52.8969C246.233 52.5786 246.753 52.4167 247.282 52.4388C247.811 52.4608 248.316 52.6655 248.711 53.0179C249.105 53.3702 249.365 53.8483 249.445 54.3704L256.877 98.9134L263.205 76.8897C263.337 76.4259 263.615 76.017 263.999 75.7241C264.383 75.4312 264.852 75.2701 265.335 75.2647H265.38C265.858 75.2648 266.324 75.4157 266.712 75.6959C267.1 75.976 267.389 76.3711 267.538 76.8247L271.573 88.9355H277.104C277.497 87.7438 278.212 86.6836 279.171 85.872C280.13 85.0603 281.295 84.5288 282.538 84.3361C283.781 84.1434 285.053 84.297 286.213 84.7799C287.374 85.2627 288.379 86.0562 289.116 87.0726C289.853 88.089 290.294 89.2889 290.391 90.5398C290.488 91.7906 290.237 93.0439 289.665 94.1613C289.093 95.2786 288.222 96.2166 287.15 96.8716C286.077 97.5266 284.844 97.8733 283.587 97.8733L283.574 97.8571Z" fill="#27CD0D"/>
</g>
<defs>
<linearGradient id="paint0_linear_737_798" x1="145.607" y1="314.803" x2="145.607" y2="64.8115" gradientUnits="userSpaceOnUse">
<stop stop-color="#808080" stop-opacity="0.25"/>
<stop offset="0.54" stop-color="#808080" stop-opacity="0.12"/>
<stop offset="1" stop-color="#808080" stop-opacity="0.1"/>
</linearGradient>
<linearGradient id="paint1_linear_737_798" x1="364.327" y1="311.642" x2="364.327" y2="83.3209" gradientUnits="userSpaceOnUse">
<stop stop-color="#808080" stop-opacity="0.25"/>
<stop offset="0.54" stop-color="#808080" stop-opacity="0.12"/>
<stop offset="1" stop-color="#808080" stop-opacity="0.1"/>
</linearGradient>
<clipPath id="clip0_737_798">
<rect width="450" height="318" fill="white" transform="translate(0.5)"/>
</clipPath>
</defs>
</svg>
