<svg width="23" height="23" viewBox="0 0 23 23" fill="none" xmlns="http://www.w3.org/2000/svg">
<path d="M4.79167 20.125C4.26458 20.125 3.81353 19.9375 3.4385 19.5625C3.06347 19.1874 2.87564 18.7361 2.875 18.2083V4.79168C2.875 4.26459 3.06283 3.81354 3.4385 3.43851C3.81417 3.06348 4.26522 2.87565 4.79167 2.87501H8.81667C9.02431 2.30001 9.37186 1.83682 9.85933 1.48543C10.3468 1.13404 10.8937 0.958344 11.5 0.958344C12.1063 0.958344 12.6535 1.13404 13.1416 1.48543C13.6297 1.83682 13.977 2.30001 14.1833 2.87501H18.2083C18.7354 2.87501 19.1868 3.06284 19.5625 3.43851C19.9381 3.81418 20.1256 4.26523 20.125 4.79168V11.2125C19.8215 11.0688 19.5101 10.9451 19.1906 10.8416C18.8712 10.7381 18.5437 10.6621 18.2083 10.6136V4.79168H4.79167V18.2083H10.5896C10.6375 18.5597 10.7135 18.8951 10.8177 19.2146C10.9218 19.534 11.0454 19.8375 11.1885 20.125H4.79167ZM4.79167 17.25V18.2083V4.79168V10.6136V10.5417V17.25ZM6.70833 16.2917H10.6135C10.6615 15.9563 10.7375 15.6288 10.8416 15.3094C10.9458 14.9899 11.0614 14.6785 11.1885 14.375H6.70833V16.2917ZM6.70833 12.4583H12.5542C13.0653 11.9792 13.6364 11.5799 14.2677 11.2604C14.8989 10.941 15.5736 10.7254 16.2917 10.6136V10.5417H6.70833V12.4583ZM6.70833 8.62501H16.2917V6.70834H6.70833V8.62501ZM11.5 4.07293C11.7076 4.07293 11.8795 4.00489 12.0156 3.8688C12.1517 3.73272 12.2194 3.56118 12.2187 3.35418C12.2181 3.14718 12.1501 2.97564 12.0146 2.83955C11.8792 2.70347 11.7076 2.63543 11.5 2.63543C11.2924 2.63543 11.1208 2.70347 10.9854 2.83955C10.8499 2.97564 10.7819 3.14718 10.7812 3.35418C10.7806 3.56118 10.8487 3.73304 10.9854 3.86976C11.1221 4.00648 11.2936 4.0742 11.5 4.07293ZM17.25 22.0417C15.9243 22.0417 14.7944 21.5743 13.8604 20.6396C12.9263 19.7049 12.459 18.5751 12.4583 17.25C12.4577 15.925 12.925 14.7951 13.8604 13.8604C14.7957 12.9257 15.9256 12.4583 17.25 12.4583C18.5744 12.4583 19.7046 12.9257 20.6406 13.8604C21.5766 14.7951 22.0436 15.925 22.0417 17.25C22.0397 18.5751 21.5724 19.7053 20.6396 20.6406C19.7068 21.5759 18.577 22.043 17.25 22.0417ZM16.7708 20.125H17.7292V17.7292H20.125V16.7708H17.7292V14.375H16.7708V16.7708H14.375V17.7292H16.7708V20.125Z" fill="#A9A9A9"/>
</svg>
