<?xml version="1.0" ?>
<svg fill="#A9A9A9" width="800px" height="800px" viewBox="0 0 32 32" style="fill-rule:evenodd;clip-rule:evenodd;stroke-linejoin:round;stroke-miterlimit:2;" version="1.1" xml:space="preserve" xmlns="http://www.w3.org/2000/svg" xmlns:xlink="http://www.w3.org/1999/xlink"><path d="M25.912,5c-0,-0.796 -0.316,-1.559 -0.879,-2.121c-0.562,-0.563 -1.325,-0.879 -2.121,-0.879c-3.431,-0 -10.4,-0 -13.831,-0c-0.795,-0 -1.558,0.316 -2.121,0.879c-0.563,0.562 -0.879,1.325 -0.879,2.121l0,22c0,0.796 0.316,1.559 0.879,2.121c0.563,0.563 1.326,0.879 2.121,0.879c3.431,0 10.4,0 13.831,0c0.796,0 1.559,-0.316 2.121,-0.879c0.563,-0.562 0.879,-1.325 0.879,-2.121l-0,-22Zm-2,-0l-0,22c-0,0.265 -0.105,0.52 -0.293,0.707c-0.188,0.188 -0.442,0.293 -0.707,0.293l-13.831,-0c-0.265,0 -0.519,-0.105 -0.707,-0.293c-0.187,-0.187 -0.293,-0.442 -0.293,-0.707c0,-0 0,-22 0,-22c0,-0.265 0.106,-0.52 0.293,-0.707c0.188,-0.188 0.442,-0.293 0.707,-0.293l13.831,-0c0.265,-0 0.519,0.105 0.707,0.293c0.188,0.187 0.293,0.442 0.293,0.707Z"/><path d="M14.995,8l-0.998,0c-0.552,0 -1,0.448 -1,1c-0,0.552 0.448,1 1,1l1.002,-0l0.002,1.002c0.001,0.552 0.45,0.999 1.002,0.998c0.552,-0.001 0.999,-0.45 0.998,-1.002l-0.002,-0.998l0.998,0c0.551,0 1,-0.448 1,-1c-0,-0.552 -0.449,-1 -1,-1l-1.002,0l-0.003,-1.002c-0.001,-0.552 -0.45,-0.999 -1.002,-0.998c-0.552,0.001 -0.999,0.45 -0.998,1.002l0.003,0.998Z"/><path d="M14.992,17l6.016,-0c0.552,-0 1,-0.448 1,-1c-0,-0.552 -0.448,-1 -1,-1l-6.016,-0c-0.552,-0 -1,0.448 -1,1c0,0.552 0.448,1 1,1Z"/><path d="M14.992,21l6.016,0c0.552,0 1,-0.448 1,-1c-0,-0.552 -0.448,-1 -1,-1l-6.016,0c-0.552,0 -1,0.448 -1,1c0,0.552 0.448,1 1,1Z"/><path d="M14.985,24.994l6.015,-0c0.552,-0 1,-0.448 1,-1c-0,-0.552 -0.448,-1 -1,-1l-6.015,-0c-0.552,-0 -1,0.448 -1,1c-0,0.552 0.448,1 1,1Z"/><circle cx="10.998" cy="15.958" r="1"/><circle cx="10.998" cy="19.976" r="1"/><circle cx="10.998" cy="23.994" r="1"/></svg>
