<svg width="20" height="24" viewBox="0 0 20 24" fill="none" xmlns="http://www.w3.org/2000/svg">
<path fill-rule="evenodd" clip-rule="evenodd" d="M13.3258 19.2601V23.2501H3.09183V16.8101C2.11597 15.9395 1.33728 14.8705 0.807839 13.6747C0.2784 12.4789 0.0104224 11.1838 0.0218341 9.87612C0.0668341 3.70012 6.27883 -0.486879 12.2568 1.08112C13.3885 1.38136 14.4313 1.94938 15.2974 2.73728C16.1634 3.52517 16.8272 4.50981 17.2328 5.60812C17.3538 5.87476 17.4159 6.16433 17.4148 6.45712V8.63612C17.4148 8.63612 18.8828 11.3861 19.8878 13.6231C19.9576 13.7788 19.9873 13.9494 19.9742 14.1195C19.9611 14.2896 19.9057 14.4537 19.8129 14.5968C19.7202 14.74 19.5931 14.8577 19.4432 14.9391C19.2933 15.0206 19.1254 15.0632 18.9548 15.0631H17.4188V17.9301C17.419 18.1048 17.3847 18.2778 17.3179 18.4392C17.2511 18.6007 17.1531 18.7473 17.0296 18.8709C16.9061 18.9944 16.7594 19.0924 16.598 19.1591C16.4365 19.2259 16.2635 19.2603 16.0888 19.2601H13.3258ZM8.52197 4.09106C8.10776 4.09106 7.77197 4.42685 7.77197 4.84106C7.77197 5.15324 7.9627 5.42087 8.23398 5.53378V6.25297C7.81618 6.34347 7.42598 6.50802 7.07779 6.73219L6.56925 6.22365C6.68146 5.9519 6.62713 5.62759 6.40628 5.40674C6.11339 5.11385 5.63852 5.11385 5.34562 5.40674L5.02078 5.73159L5.01865 5.73371L5.01653 5.73584L4.69162 6.06074C4.39873 6.35364 4.39873 6.82851 4.69162 7.1214C4.9125 7.34227 5.23685 7.39659 5.50862 7.28434L6.01713 7.79285C5.79296 8.14104 5.62841 8.53124 5.53791 8.94904H4.81908C4.7064 8.67725 4.43851 8.48608 4.12598 8.48608C3.71176 8.48608 3.37598 8.82187 3.37598 9.23608V9.69904V10.1621C3.37598 10.5763 3.71176 10.9121 4.12598 10.9121C4.43855 10.9121 4.70646 10.7209 4.81912 10.449H5.53791C5.62841 10.8668 5.79297 11.257 6.01714 11.6052L5.50858 12.1138C5.23682 12.0016 4.91249 12.0559 4.69162 12.2767C4.39873 12.5696 4.39873 13.0445 4.69162 13.3374L5.34562 13.9914C5.63852 14.2843 6.11339 14.2843 6.40628 13.9914C6.62714 13.7705 6.68146 13.4462 6.56924 13.1745L7.0778 12.6659C7.42599 12.8901 7.81619 13.0546 8.23398 13.1451V13.8644C7.9627 13.9773 7.77197 14.2449 7.77197 14.5571C7.77197 14.9713 8.10776 15.3071 8.52197 15.3071H9.44697C9.86119 15.3071 10.197 14.9713 10.197 14.5571C10.197 14.2445 10.0058 13.9766 9.73398 13.8639V13.1451C10.1518 13.0546 10.542 12.8901 10.8901 12.6659L11.3987 13.1744C11.2865 13.4462 11.3408 13.7705 11.5617 13.9914C11.8545 14.2843 12.3294 14.2843 12.6223 13.9914L13.2763 13.3374C13.5692 13.0445 13.5692 12.5696 13.2763 12.2767C13.0555 12.0559 12.7311 12.0016 12.4594 12.1138L11.9508 11.6052C12.175 11.257 12.3395 10.8668 12.43 10.449H13.1488C13.2615 10.7209 13.5294 10.9121 13.842 10.9121C14.2562 10.9121 14.592 10.5763 14.592 10.1621L14.592 9.69904L14.592 9.23608C14.592 8.82187 14.2562 8.48608 13.842 8.48608C13.5294 8.48608 13.2616 8.67725 13.1489 8.94904H12.43C12.3395 8.53124 12.175 8.14103 11.9508 7.79284L12.4593 7.28434C12.7311 7.39659 13.0554 7.34227 13.2763 7.1214C13.5692 6.82851 13.5692 6.35364 13.2763 6.06074L12.9522 5.73667L12.9493 5.73371L12.9463 5.73076L12.6223 5.40674C12.3294 5.11385 11.8545 5.11385 11.5617 5.40674C11.3408 5.62759 11.2865 5.95191 11.3987 6.22366L10.8902 6.73219C10.542 6.50802 10.1518 6.34347 9.73398 6.25297V5.53419C10.0058 5.42151 10.197 5.15362 10.197 4.84106C10.197 4.42685 9.86119 4.09106 9.44697 4.09106H8.98398H8.52197ZM6.95798 9.69904C6.95798 8.58202 7.86194 7.67614 8.97823 7.67304L8.98398 7.67306L8.98973 7.67304C10.106 7.67614 11.01 8.58202 11.01 9.69904C11.01 10.818 10.1029 11.725 8.98398 11.725C7.86505 11.725 6.95798 10.818 6.95798 9.69904Z" fill="#FF8E26"/>
</svg>
