<svg width="16" height="16" viewBox="0 0 16 16" fill="none" xmlns="http://www.w3.org/2000/svg">
<path d="M5.44771 13.2189L13.219 5.44771C13.5824 5.08421 13.7642 4.90247 13.8614 4.7064C14.0462 4.33337 14.0462 3.8954 13.8614 3.52236C13.7642 3.3263 13.5824 3.14455 13.219 2.78105C12.8554 2.41755 12.6737 2.2358 12.4776 2.13864C12.1046 1.95379 11.6666 1.95379 11.2936 2.13864C11.0975 2.2358 10.9158 2.41755 10.5523 2.78105L2.78105 10.5523C2.39567 10.9376 2.20299 11.1303 2.10149 11.3753C2 11.6203 2 11.8929 2 12.4379V13.9999H3.56209C4.1071 13.9999 4.3796 13.9999 4.62463 13.8985C4.86965 13.797 5.06234 13.6043 5.44771 13.2189Z" stroke="#CA7715" stroke-width="1.5" stroke-linecap="round" stroke-linejoin="round"/>
<path d="M8 14H12" stroke="#CA7715" stroke-width="1.5" stroke-linecap="round" stroke-linejoin="round"/>
<path d="M9.66663 3.66666L12.3333 6.33332" stroke="#CA7715" stroke-width="1.5" stroke-linecap="round" stroke-linejoin="round"/>
</svg>
