<svg width="24" height="24" viewBox="0 0 24 24" fill="none" xmlns="http://www.w3.org/2000/svg">
<path d="M8.5 8H8C6.11438 8 5.17157 8 4.58579 8.58579C4 9.17157 4 10.1144 4 12V15.5C4 17.3856 4 18.3284 4.58579 18.9142C5.17157 19.5 6.11438 19.5 8 19.5H16C17.8856 19.5 18.8284 19.5 19.4142 18.9142C20 18.3284 20 17.3856 20 15.5V12C20 10.1144 20 9.17157 19.4142 8.58579C18.8284 8 17.8856 8 16 8H15.5M8.5 8V7.5C8.5 6.08579 8.5 5.37868 8.93934 4.93934C9.37868 4.5 10.0858 4.5 11.5 4.5H12.5C13.9142 4.5 14.6213 4.5 15.0607 4.93934C15.5 5.37868 15.5 6.08579 15.5 7.5V8M8.5 8H15.5" stroke="#A9A9A9" stroke-width="1.5"/>
<path d="M10.9321 10.963C10.875 11.1008 10.875 11.2755 10.875 11.625V12.339C10.875 12.356 10.875 12.3645 10.8697 12.3697C10.8645 12.375 10.856 12.375 10.839 12.375H10.125C9.77554 12.375 9.60082 12.375 9.46299 12.4321C9.27922 12.5082 9.13321 12.6542 9.05709 12.838C9 12.9758 9 13.1505 9 13.5C9 13.8495 9 14.0242 9.05709 14.162C9.13321 14.3458 9.27922 14.4918 9.46299 14.5679C9.60082 14.625 9.77554 14.625 10.125 14.625H10.839C10.856 14.625 10.8645 14.625 10.8697 14.6303C10.875 14.6355 10.875 14.644 10.875 14.661V15.375C10.875 15.7245 10.875 15.8992 10.9321 16.037C11.0082 16.2208 11.1542 16.3668 11.338 16.4429C11.4758 16.5 11.6505 16.5 12 16.5C12.3495 16.5 12.5242 16.5 12.662 16.4429C12.8458 16.3668 12.9918 16.2208 13.0679 16.037C13.125 15.8992 13.125 15.7245 13.125 15.375V14.661C13.125 14.644 13.125 14.6355 13.1303 14.6303C13.1355 14.625 13.144 14.625 13.161 14.625H13.875C14.2245 14.625 14.3992 14.625 14.537 14.5679C14.7208 14.4918 14.8668 14.3458 14.9429 14.162C15 14.0242 15 13.8495 15 13.5C15 13.1505 15 12.9758 14.9429 12.838C14.8668 12.6542 14.7208 12.5082 14.537 12.4321C14.3992 12.375 14.2245 12.375 13.875 12.375H13.161C13.144 12.375 13.1355 12.375 13.1303 12.3697C13.125 12.3645 13.125 12.356 13.125 12.339V11.625C13.125 11.2755 13.125 11.1008 13.0679 10.963C12.9918 10.7792 12.8458 10.6332 12.662 10.5571C12.5242 10.5 12.3495 10.5 12 10.5C11.6505 10.5 11.4758 10.5 11.338 10.5571C11.1542 10.6332 11.0082 10.7792 10.9321 10.963Z" fill="#A9A9A9"/>
</svg>
