<svg width="190" height="203" viewBox="0 0 190 203" fill="none" xmlns="http://www.w3.org/2000/svg">
<path d="M125.623 76.4801C122.488 91.8404 113.761 105.49 101.134 114.781C88.5078 124.073 72.8808 128.345 57.2832 126.77C41.6856 125.194 27.2286 117.884 16.715 106.255C6.20144 94.6256 0.380371 79.5071 0.380371 63.8301C0.380371 48.1531 6.20144 33.0346 16.715 21.4056C27.2286 9.77665 41.6856 2.46575 57.2832 0.890325C72.8808 -0.6851 88.5078 3.58719 101.134 12.8789C113.761 22.1706 122.488 35.8197 125.623 51.1801H76.2427V25.8701H50.9427V51.1801H25.6427V76.4801H50.9427V101.79H76.2427V76.4801H125.623Z" fill="#27CD0D"/>
<path d="M126.733 76.48C112.149 76.4778 98.0116 81.5139 86.7137 90.7363C75.4159 99.9586 67.6509 112.801 64.7327 127.09H114.073V101.79H139.373V127.09H164.683V152.39H139.383V177.7H114.083V152.39H64.7427C67.1361 164.117 72.8074 174.925 81.0979 183.558C89.3884 192.191 99.958 198.294 111.579 201.16C123.2 204.026 135.395 203.536 146.749 199.747C158.103 195.959 168.148 189.027 175.72 179.757C183.291 170.487 188.077 159.259 189.522 147.377C190.967 135.496 189.012 123.448 183.883 112.634C178.755 101.819 170.663 92.6814 160.549 86.2818C150.434 79.8822 138.712 76.4833 126.743 76.48H126.733Z" fill="#333333"/>
</svg>
