<svg width="571" height="338" viewBox="0 0 571 338" fill="none" xmlns="http://www.w3.org/2000/svg">
<g clip-path="url(#clip0_724_949)">
<path d="M316.08 75.91C312.945 91.2704 304.218 104.92 291.592 114.211C278.965 123.503 263.338 127.775 247.741 126.2C232.143 124.624 217.686 117.313 207.172 105.684C196.659 94.0555 190.838 78.937 190.838 63.26C190.838 47.583 196.659 32.4645 207.172 20.8355C217.686 9.20658 232.143 1.89568 247.741 0.320257C263.338 -1.25517 278.965 3.01712 291.592 12.3088C304.218 21.6005 312.945 35.2497 316.08 50.61H266.7V25.3H241.4V50.61H216.1V75.91H241.4V101.22H266.7V75.91H316.08Z" fill="#27CD0D"/>
<path d="M317.19 75.91C302.606 75.9078 288.469 80.944 277.171 90.1663C265.873 99.3887 258.108 112.231 255.19 126.52H304.53V101.22H329.83V126.52H355.14V151.82H329.84V177.13H304.54V151.82H255.2C257.593 163.547 263.265 174.355 271.555 182.988C279.846 191.621 290.415 197.724 302.036 200.59C313.657 203.456 325.853 202.966 337.206 199.177C348.56 195.389 358.606 188.457 366.177 179.187C373.748 169.917 378.535 158.689 379.98 146.808C381.425 134.926 379.469 122.878 374.341 112.064C369.212 101.249 361.121 92.1114 351.006 85.7118C340.892 79.3122 329.169 75.9134 317.2 75.91H317.19Z" fill="#333333"/>
<path d="M4.11 242.84C6.75941 237.97 10.7323 233.948 15.57 231.24C20.6677 228.422 26.4159 226.991 32.24 227.09C39.8533 227.09 46.3667 229.09 51.78 233.09C57.2077 237.135 61.0496 242.951 62.64 249.53H45.48C44.3218 246.99 42.4263 244.858 40.04 243.41C37.6171 241.988 34.849 241.261 32.04 241.31C29.8448 241.23 27.659 241.636 25.6395 242.501C23.6201 243.365 21.8171 244.666 20.36 246.31C17.3733 249.643 15.88 254.117 15.88 259.73C15.88 265.343 17.3733 269.82 20.36 273.16C21.8171 274.804 23.6201 276.105 25.6395 276.969C27.659 277.834 29.8448 278.24 32.04 278.16C34.849 278.209 37.6171 277.482 40.04 276.06C42.4263 274.612 44.3218 272.48 45.48 269.94H62.64C61.0842 276.548 57.2364 282.391 51.78 286.43C46.36 290.43 39.8467 292.43 32.24 292.43C26.4159 292.529 20.6677 291.098 15.57 288.28C10.7415 285.582 6.77001 281.579 4.11 276.73C1.40909 271.501 -0.000305176 265.701 -0.000305176 259.815C-0.000305176 253.929 1.40909 248.129 4.11 242.9V242.84Z" fill="#27CD0D"/>
<path d="M72.09 252.56C73.8745 248.82 76.6742 245.656 80.17 243.43C83.5931 241.295 87.5559 240.185 91.59 240.23C94.875 240.156 98.1255 240.913 101.04 242.43C103.6 243.754 105.758 245.74 107.29 248.18V240.96H122.9V291.96H107.29V284.74C105.706 287.174 103.518 289.155 100.94 290.49C98.0258 292.008 94.7751 292.765 91.49 292.69C87.4801 292.726 83.5465 291.593 80.17 289.43C76.6707 287.169 73.8722 283.976 72.09 280.21C70.1323 275.869 69.1198 271.162 69.1198 266.4C69.1198 261.638 70.1323 256.931 72.09 252.59V252.56ZM104.09 257.22C103.068 256.158 101.843 255.313 100.487 254.734C99.1322 254.155 97.6744 253.854 96.2006 253.849C94.7268 253.845 93.2671 254.136 91.9082 254.707C90.5493 255.277 89.3189 256.115 88.29 257.17C86.13 259.4 85.05 262.45 85.05 266.35C85.05 270.25 86.13 273.35 88.29 275.62C89.3067 276.694 90.5316 277.549 91.8899 278.133C93.2482 278.718 94.7113 279.019 96.19 279.019C97.6687 279.019 99.1318 278.718 100.49 278.133C101.848 277.549 103.073 276.694 104.09 275.62C106.25 273.373 107.33 270.3 107.33 266.4C107.33 262.5 106.237 259.44 104.05 257.22H104.09Z" fill="#27CD0D"/>
<path d="M156.7 242.84C159.466 241.216 162.623 240.379 165.83 240.42V256.94H161.54C157.64 256.94 154.717 257.78 152.77 259.46C150.823 261.14 149.85 264.077 149.85 268.27V291.92H134.23V240.92H149.84V249.43C151.581 246.728 153.931 244.471 156.7 242.84Z" fill="#27CD0D"/>
<path d="M221.06 270.18H185.7C185.756 272.902 186.85 275.5 188.76 277.44C190.551 279.115 192.929 280.017 195.38 279.95C199.28 279.95 201.99 278.307 203.51 275.02H220.13C219.271 278.397 217.654 281.533 215.401 284.191C213.149 286.849 210.32 288.959 207.13 290.36C203.596 291.927 199.765 292.708 195.9 292.65C191.257 292.734 186.669 291.632 182.57 289.45C178.706 287.356 175.534 284.184 173.44 280.32C171.188 276.044 170.072 271.261 170.2 266.43C170.088 261.604 171.203 256.828 173.44 252.55C175.51 248.682 178.671 245.507 182.53 243.42C186.644 241.332 191.19 240.236 195.804 240.22C200.418 240.205 204.972 241.27 209.1 243.33C212.892 245.354 216.017 248.431 218.1 252.19C220.33 256.305 221.447 260.931 221.34 265.61C221.333 267.138 221.24 268.663 221.06 270.18ZM205.36 261.51C205.414 260.307 205.195 259.108 204.721 258.002C204.246 256.895 203.528 255.91 202.62 255.12C200.71 253.507 198.269 252.659 195.77 252.74C193.358 252.67 191.003 253.485 189.15 255.03C187.271 256.699 186.083 259.01 185.82 261.51H205.36Z" fill="#27CD0D"/>
<path d="M231.01 242.84C233.659 237.97 237.632 233.948 242.47 231.24C247.568 228.422 253.316 226.991 259.14 227.09C266.74 227.09 273.253 229.09 278.68 233.09C284.108 237.135 287.95 242.951 289.54 249.53H272.38C271.222 246.99 269.326 244.858 266.94 243.41C264.517 241.988 261.749 241.261 258.94 241.31C256.745 241.23 254.559 241.636 252.54 242.501C250.52 243.365 248.717 244.666 247.26 246.31C244.267 249.643 242.773 254.117 242.78 259.73C242.787 265.343 244.28 269.82 247.26 273.16C248.717 274.804 250.52 276.105 252.54 276.969C254.559 277.834 256.745 278.24 258.94 278.16C261.749 278.209 264.517 277.482 266.94 276.06C269.326 274.612 271.222 272.48 272.38 269.94H289.54C287.989 276.545 284.149 282.387 278.7 286.43C273.28 290.43 266.767 292.43 259.16 292.43C253.336 292.529 247.588 291.098 242.49 288.28C237.661 285.582 233.69 281.579 231.03 276.73C228.329 271.501 226.92 265.701 226.92 259.815C226.92 253.929 228.329 248.129 231.03 242.9L231.01 242.84Z" fill="#333333"/>
<path d="M346.88 270.18H311.54C311.598 272.899 312.693 275.492 314.6 277.43C316.392 279.103 318.769 280.005 321.22 279.94C325.12 279.94 327.83 278.297 329.35 275.01H345.97C345.111 278.387 343.494 281.523 341.241 284.181C338.989 286.839 336.16 288.949 332.97 290.35C329.436 291.917 325.605 292.698 321.74 292.64C317.097 292.722 312.51 291.621 308.41 289.44C304.546 287.346 301.374 284.174 299.28 280.31C297.023 276.039 295.9 271.26 296.02 266.43C295.908 261.604 297.023 256.828 299.26 252.55C301.33 248.682 304.491 245.507 308.35 243.42C312.464 241.332 317.01 240.236 321.624 240.22C326.238 240.205 330.792 241.27 334.92 243.33C338.712 245.354 341.837 248.431 343.92 252.19C346.153 256.304 347.274 260.93 347.17 265.61C347.16 267.138 347.063 268.663 346.88 270.18ZM331.18 261.51C331.233 260.307 331.015 259.108 330.54 258.002C330.066 256.895 329.348 255.91 328.44 255.12C326.53 253.507 324.089 252.659 321.59 252.74C319.178 252.67 316.823 253.485 314.97 255.03C313.091 256.699 311.903 259.01 311.64 261.51H331.18Z" fill="#333333"/>
<path d="M400.7 246.22C404.26 250.08 406.04 255.39 406.04 262.15V291.92H390.53V264.25C390.53 260.84 389.64 258.19 387.88 256.3C385.953 254.481 383.404 253.468 380.755 253.468C378.106 253.468 375.557 254.481 373.63 256.3C371.87 258.187 370.99 260.837 370.99 264.25V291.92H355.37V240.92H370.99V247.68C372.627 245.382 374.827 243.543 377.38 242.34C380.187 240.992 383.266 240.308 386.38 240.34C392.367 240.4 397.14 242.36 400.7 246.22Z" fill="#333333"/>
<path d="M445.31 278.68V291.92H437.37C431.71 291.92 427.297 290.533 424.13 287.76C420.963 284.987 419.38 280.467 419.38 274.2V253.93H413.17V240.93H419.38V228.55H434.99V240.96H445.22V253.96H434.99V274.43C434.934 275.025 435.002 275.625 435.192 276.191C435.381 276.758 435.687 277.279 436.09 277.72C437.144 278.488 438.442 278.843 439.74 278.72L445.31 278.68Z" fill="#333333"/>
<path d="M476.45 242.84C479.216 241.216 482.373 240.379 485.58 240.42V256.94H481.29C477.39 256.94 474.467 257.78 472.52 259.46C470.573 261.14 469.6 264.077 469.6 268.27V291.92H453.99V240.92H469.6V249.43C471.336 246.727 473.682 244.47 476.45 242.84Z" fill="#333333"/>
<path d="M492.93 252.56C494.714 248.82 497.514 245.656 501.01 243.43C504.43 241.295 508.389 240.185 512.42 240.23C515.705 240.156 518.956 240.913 521.87 242.43C524.434 243.751 526.596 245.737 528.13 248.18V240.96H543.7V291.96H528.13V284.74C526.546 287.174 524.358 289.155 521.78 290.49C518.866 292.007 515.615 292.764 512.33 292.69C508.32 292.726 504.387 291.593 501.01 289.43C497.511 287.169 494.712 283.976 492.93 280.21C490.972 275.869 489.96 271.162 489.96 266.4C489.96 261.638 490.972 256.931 492.93 252.59V252.56ZM524.93 257.22C523.908 256.158 522.683 255.313 521.327 254.734C519.972 254.155 518.514 253.854 517.041 253.849C515.567 253.845 514.107 254.136 512.748 254.707C511.389 255.277 510.159 256.115 509.13 257.17C506.97 259.4 505.89 262.45 505.89 266.35C505.89 270.25 506.97 273.35 509.13 275.62C510.147 276.694 511.372 277.549 512.73 278.133C514.088 278.718 515.551 279.019 517.03 279.019C518.509 279.019 519.972 278.718 521.33 278.133C522.688 277.549 523.913 276.694 524.93 275.62C527.09 273.373 528.17 270.3 528.17 266.4C528.17 262.5 527.077 259.44 524.89 257.22H524.93Z" fill="#333333"/>
<path d="M570.7 224.35V291.92H555.06V224.35H570.7Z" fill="#333333"/>
<path d="M79.7 317.43V337.43H77.09V328.36H66.92V337.43H64.31V317.43H66.92V326.2H77.11V317.43H79.7Z" fill="#333333"/>
<path d="M88.15 336.26C86.6298 335.402 85.3742 334.143 84.52 332.62C83.6474 331.002 83.1906 329.193 83.1906 327.355C83.1906 325.517 83.6474 323.708 84.52 322.09C85.377 320.57 86.6319 319.311 88.15 318.45C89.7108 317.597 91.4611 317.149 93.24 317.149C95.0189 317.149 96.7692 317.597 98.33 318.45C99.8468 319.305 101.099 320.561 101.95 322.08C102.817 323.705 103.27 325.518 103.27 327.36C103.27 329.202 102.817 331.015 101.95 332.64C101.096 334.154 99.8443 335.406 98.33 336.26C96.7712 337.12 95.0201 337.571 93.24 337.571C91.4599 337.571 89.7088 337.12 88.15 336.26ZM97 334.33C98.1256 333.672 99.0412 332.708 99.64 331.55C100.272 330.242 100.6 328.808 100.6 327.355C100.6 325.902 100.272 324.468 99.64 323.16C99.0419 322.007 98.1302 321.047 97.01 320.39C95.852 319.747 94.5494 319.41 93.225 319.41C91.9006 319.41 90.598 319.747 89.44 320.39C88.3228 321.048 87.4145 322.008 86.82 323.16C86.1885 324.468 85.8605 325.902 85.8605 327.355C85.8605 328.808 86.1885 330.242 86.82 331.55C87.4188 332.708 88.3344 333.672 89.46 334.33C90.6147 334.966 91.9116 335.3 93.23 335.3C94.5484 335.3 95.8454 334.966 97 334.33Z" fill="#333333"/>
<path d="M109.51 336.87C108.531 336.45 107.682 335.777 107.05 334.92C106.455 334.074 106.137 333.064 106.14 332.03H108.92C108.996 332.938 109.41 333.784 110.08 334.4C110.91 335.113 111.988 335.472 113.08 335.4C114.141 335.459 115.186 335.128 116.02 334.47C116.369 334.177 116.646 333.809 116.832 333.393C117.017 332.978 117.105 332.525 117.09 332.07C117.119 331.393 116.894 330.73 116.46 330.21C116.032 329.725 115.494 329.351 114.89 329.12C114.052 328.805 113.198 328.538 112.33 328.32C111.25 328.065 110.191 327.731 109.16 327.32C108.363 326.964 107.674 326.405 107.16 325.7C106.544 324.826 106.244 323.768 106.31 322.7C106.293 321.676 106.582 320.669 107.14 319.81C107.718 318.95 108.53 318.274 109.48 317.86C110.57 317.382 111.75 317.147 112.94 317.17C114.587 317.103 116.209 317.597 117.54 318.57C118.116 319.017 118.592 319.58 118.937 320.222C119.281 320.865 119.487 321.573 119.54 322.3H116.67C116.551 321.501 116.119 320.781 115.47 320.3C114.664 319.69 113.67 319.382 112.66 319.43C111.699 319.388 110.754 319.686 109.99 320.27C109.652 320.561 109.385 320.927 109.212 321.338C109.038 321.749 108.962 322.195 108.99 322.64C108.962 323.289 109.18 323.925 109.6 324.42C110.027 324.861 110.546 325.203 111.12 325.42C111.73 325.66 112.57 325.93 113.66 326.24C114.748 326.521 115.815 326.882 116.85 327.32C117.663 327.682 118.371 328.242 118.91 328.95C119.528 329.824 119.831 330.882 119.77 331.95C119.769 332.92 119.502 333.871 119 334.7C118.441 335.599 117.646 336.325 116.7 336.8C115.59 337.355 114.361 337.63 113.12 337.6C111.878 337.623 110.646 337.374 109.51 336.87Z" fill="#333333"/>
<path d="M135.21 327.37C133.755 328.578 131.885 329.17 130 329.02H126.16V337.37H123.55V317.43H130C131.862 317.297 133.704 317.88 135.15 319.06C135.73 319.595 136.187 320.249 136.491 320.978C136.795 321.706 136.938 322.491 136.91 323.28C136.923 324.042 136.779 324.799 136.487 325.502C136.194 326.206 135.759 326.842 135.21 327.37ZM133.21 325.92C133.559 325.569 133.829 325.147 134.001 324.683C134.174 324.219 134.245 323.724 134.21 323.23C134.21 320.757 132.793 319.523 129.96 319.53H126.12V326.87H129.96C131.124 326.975 132.285 326.636 133.21 325.92Z" fill="#333333"/>
<path d="M142.77 317.43V337.43H140.15V317.43H142.77Z" fill="#333333"/>
<path d="M159.52 317.43V319.55H154.07V337.42H151.46V319.5H145.98V317.43H159.52Z" fill="#333333"/>
<path d="M174.55 332.92H165.83L164.22 337.37H161.47L168.7 317.49H171.7L178.9 337.37H176.14L174.55 332.92ZM173.8 330.8L170.19 320.7L166.57 330.8H173.8Z" fill="#333333"/>
<path d="M184.7 335.25H191.7V337.37H182.09V317.43H184.7V335.25Z" fill="#333333"/>
<path d="M222.39 317.52V337.37H219.78V322.57L213.18 337.37H211.35L204.7 322.54V337.37H202.09V317.52H204.9L212.25 333.93L219.59 317.52H222.39Z" fill="#333333"/>
<path d="M238.63 332.92H229.91L228.3 337.37H225.55L232.78 317.49H235.78L242.98 337.37H240.22L238.63 332.92ZM237.88 330.8L234.27 320.7L230.7 330.8H237.88Z" fill="#333333"/>
<path d="M261.86 337.37H259.25L248.75 321.43V337.35H246.14V317.35H248.75L259.25 333.24V317.35H261.86V337.37Z" fill="#333333"/>
<path d="M278.13 332.92H269.41L267.8 337.37H265.05L272.27 317.49H275.27L282.47 337.37H279.7L278.13 332.92ZM277.38 330.8L273.77 320.7L270.15 330.8H277.38Z" fill="#333333"/>
<path d="M300.79 323.17C300.273 322.048 299.434 321.105 298.38 320.46C297.274 319.791 296.003 319.444 294.71 319.46C293.384 319.452 292.079 319.797 290.93 320.46C289.808 321.109 288.893 322.062 288.29 323.21C287.616 324.488 287.273 325.915 287.29 327.36C287.271 328.799 287.615 330.219 288.29 331.49C288.896 332.633 289.811 333.582 290.93 334.23C292.079 334.892 293.384 335.238 294.71 335.23C296.48 335.297 298.207 334.669 299.52 333.48C300.824 332.236 301.613 330.548 301.73 328.75H293.73V326.62H304.49V328.62C304.346 330.23 303.814 331.781 302.94 333.14C302.074 334.495 300.881 335.609 299.47 336.38C298.001 337.18 296.352 337.589 294.68 337.57C292.902 337.592 291.149 337.144 289.6 336.27C288.083 335.412 286.828 334.157 285.97 332.64C285.097 331.024 284.641 329.216 284.641 327.38C284.641 325.543 285.097 323.736 285.97 322.12C286.827 320.599 288.082 319.341 289.6 318.48C291.252 317.583 293.111 317.135 294.991 317.183C296.871 317.23 298.705 317.77 300.31 318.75C301.951 319.807 303.204 321.369 303.88 323.2L300.79 323.17Z" fill="#333333"/>
<path d="M310.57 319.5V326.18H317.85V328.33H310.57V335.22H318.7V337.37H307.96V317.37H318.7V319.52L310.57 319.5Z" fill="#333333"/>
<path d="M342.95 317.52V337.37H340.34V322.57L333.75 337.37H331.91L325.28 322.54V337.37H322.7V317.52H325.51L332.86 333.93L340.2 317.52H342.95Z" fill="#333333"/>
<path d="M349.98 319.5V326.18H357.27V328.33H349.98V335.22H358.13V337.37H347.37V317.37H358.13V319.52L349.98 319.5Z" fill="#333333"/>
<path d="M377.8 337.37H375.19L364.7 321.43V337.35H362.08V317.35H364.7L375.19 333.24V317.35H377.8V337.37Z" fill="#333333"/>
<path d="M394.56 317.43V319.55H389.11V337.42H386.5V319.5H381.02V317.43H394.56Z" fill="#333333"/>
<path d="M408.22 336.87C407.243 336.452 406.397 335.778 405.77 334.92C405.176 334.073 404.855 333.065 404.85 332.03H407.64C407.708 332.948 408.123 333.806 408.8 334.43C409.63 335.143 410.708 335.502 411.8 335.43C412.856 335.459 413.886 335.104 414.7 334.43C415.049 334.137 415.326 333.769 415.512 333.353C415.697 332.938 415.785 332.485 415.77 332.03C415.799 331.353 415.574 330.69 415.14 330.17C414.71 329.684 414.167 329.31 413.56 329.08C412.726 328.764 411.875 328.497 411.01 328.28C409.93 328.026 408.87 327.692 407.84 327.28C407.046 326.92 406.358 326.362 405.84 325.66C405.231 324.783 404.936 323.726 405 322.66C404.978 321.635 405.267 320.627 405.83 319.77C406.403 318.905 407.216 318.228 408.17 317.82C409.256 317.342 410.434 317.107 411.62 317.13C413.271 317.062 414.896 317.555 416.23 318.53C416.806 318.977 417.282 319.54 417.627 320.182C417.971 320.825 418.177 321.533 418.23 322.26H415.36C415.237 321.462 414.806 320.744 414.16 320.26C413.354 319.649 412.36 319.342 411.35 319.39C410.389 319.348 409.444 319.645 408.68 320.23C408.342 320.521 408.075 320.886 407.902 321.298C407.728 321.709 407.652 322.155 407.68 322.6C407.652 323.249 407.87 323.885 408.29 324.38C408.715 324.824 409.235 325.165 409.81 325.38C410.41 325.62 411.26 325.89 412.35 326.2C413.436 326.479 414.499 326.84 415.53 327.28C416.347 327.639 417.059 328.2 417.6 328.91C418.213 329.786 418.516 330.842 418.46 331.91C418.459 332.88 418.193 333.831 417.69 334.66C417.129 335.557 416.334 336.283 415.39 336.76C414.28 337.314 413.051 337.589 411.81 337.56C410.578 337.59 409.353 337.355 408.22 336.87Z" fill="#333333"/>
<path d="M436.26 317.43L429.75 329.87V337.42H427.14V329.87L420.6 317.43H423.5L428.43 327.55L433.37 317.43H436.26Z" fill="#333333"/>
<path d="M441.81 336.87C440.833 336.452 439.987 335.778 439.36 334.92C438.766 334.073 438.445 333.065 438.44 332.03H441.22C441.304 332.937 441.721 333.781 442.39 334.4C443.219 335.115 444.297 335.474 445.39 335.4C446.451 335.458 447.496 335.128 448.33 334.47C448.679 334.177 448.956 333.809 449.142 333.393C449.327 332.977 449.415 332.525 449.4 332.07C449.429 331.393 449.204 330.73 448.77 330.21C448.34 329.724 447.797 329.35 447.19 329.12C446.356 328.804 445.505 328.536 444.64 328.32C443.56 328.066 442.5 327.732 441.47 327.32C440.676 326.959 439.988 326.402 439.47 325.7C438.861 324.822 438.566 323.766 438.63 322.7C438.608 321.675 438.897 320.667 439.46 319.81C440.033 318.945 440.846 318.267 441.8 317.86C442.886 317.382 444.064 317.147 445.25 317.17C446.901 317.101 448.526 317.595 449.86 318.57C450.436 319.017 450.912 319.58 451.257 320.222C451.601 320.865 451.807 321.573 451.86 322.3H448.99C448.867 321.502 448.436 320.784 447.79 320.3C446.984 319.689 445.99 319.381 444.98 319.43C444.019 319.388 443.074 319.685 442.31 320.27C441.972 320.561 441.706 320.927 441.533 321.338C441.359 321.749 441.283 322.195 441.31 322.64C441.286 323.29 441.507 323.925 441.93 324.42C442.355 324.863 442.875 325.205 443.45 325.42C444.05 325.66 444.9 325.93 445.99 326.24C447.076 326.519 448.139 326.88 449.17 327.32C449.987 327.679 450.699 328.24 451.24 328.95C451.853 329.826 452.156 330.882 452.1 331.95C452.099 332.92 451.833 333.87 451.33 334.7C450.769 335.596 449.974 336.323 449.03 336.8C447.92 337.354 446.691 337.629 445.45 337.6C444.198 337.626 442.955 337.377 441.81 336.87Z" fill="#333333"/>
<path d="M468.16 317.43V319.55H462.7V337.42H460.1V319.5H454.62V317.43H468.16Z" fill="#333333"/>
<path d="M473.98 319.5V326.18H481.27V328.33H473.98V335.22H482.13V337.37H471.37V317.37H482.13V319.52L473.98 319.5Z" fill="#333333"/>
<path d="M506.37 317.52V337.37H503.76V322.57L497.16 337.37H495.32L488.7 322.54V337.37H486.09V317.52H488.9L496.24 333.93L503.58 317.52H506.37Z" fill="#333333"/>
</g>
<defs>
<clipPath id="clip0_724_949">
<rect width="570.67" height="337.57" fill="white"/>
</clipPath>
</defs>
</svg>
