<svg width="251" height="149" viewBox="0 0 251 149" fill="none" xmlns="http://www.w3.org/2000/svg">
<g clip-path="url(#clip0_1075_1681)">
<path d="M139.023 33.281C137.644 40.0154 133.806 45.9996 128.252 50.0733C122.698 54.1471 115.825 56.0202 108.965 55.3295C102.104 54.6387 95.7456 51.4334 91.1214 46.335C86.4972 41.2365 83.9369 34.6081 83.9369 27.7349C83.9369 20.8617 86.4972 14.2333 91.1214 9.13487C95.7456 4.03641 102.104 0.83111 108.965 0.1404C115.825 -0.55031 122.698 1.32278 128.252 5.39652C133.806 9.47026 137.644 15.4544 139.023 22.1888H117.304V11.0922H106.176V22.1888H95.0481V33.281H106.176V44.3776H117.304V33.281H139.023Z" fill="#27CD0D"/>
<path d="M139.511 33.281C133.096 33.2801 126.878 35.4881 121.909 39.5314C116.94 43.5747 113.525 49.2051 112.241 55.4699H133.943V44.3776H145.07V55.4699H156.203V66.5621H145.075V77.6587H133.947V66.5621H112.246C113.298 71.7036 115.793 76.442 119.439 80.2269C123.086 84.0118 127.734 86.6878 132.846 87.9442C137.957 89.2006 143.321 88.9858 148.315 87.3248C153.308 85.6638 157.727 82.6246 161.057 78.5604C164.387 74.4962 166.492 69.5736 167.128 64.3645C167.763 59.1553 166.903 53.8733 164.648 49.1318C162.392 44.3904 158.833 40.3842 154.384 37.5784C149.936 34.7727 144.78 33.2825 139.515 33.281H139.511Z" fill="#333333"/>
<path d="M1.80772 106.468C2.97302 104.333 4.72045 102.569 6.84821 101.382C9.09037 100.146 11.6186 99.5189 14.1802 99.5625C17.5288 99.5625 20.3936 100.439 22.7746 102.193C25.1619 103.966 26.8517 106.516 27.5512 109.401H20.0036C19.4942 108.287 18.6605 107.352 17.6109 106.718C16.5453 106.094 15.3278 105.776 14.0923 105.797C13.1267 105.762 12.1654 105.94 11.2771 106.319C10.3889 106.698 9.5959 107.268 8.95502 107.989C7.64138 109.451 6.98456 111.412 6.98456 113.873C6.98456 116.334 7.64138 118.297 8.95502 119.761C9.5959 120.482 10.3889 121.052 11.2771 121.431C12.1654 121.81 13.1267 121.988 14.0923 121.953C15.3278 121.974 16.5453 121.656 17.6109 121.032C18.6605 120.397 19.4942 119.463 20.0036 118.349H27.5512C26.8669 121.246 25.1745 123.808 22.7746 125.579C20.3907 127.333 17.5259 128.209 14.1802 128.209C11.6186 128.253 9.09037 127.626 6.84821 126.39C4.72447 125.207 2.97768 123.452 1.80772 121.326C0.619769 119.033 -0.000132561 116.49 -0.000132561 113.91C-0.000132561 111.33 0.619769 108.787 1.80772 106.494V106.468Z" fill="#27CD0D"/>
<path d="M31.7076 110.729C32.4925 109.089 33.7239 107.702 35.2615 106.726C36.7671 105.79 38.5101 105.304 40.2844 105.323C41.7292 105.291 43.1589 105.623 44.4408 106.288C45.5666 106.868 46.5158 107.739 47.1898 108.809V105.643H54.0556V128.003H47.1898V124.838C46.4931 125.905 45.5308 126.773 44.3968 127.359C43.1151 128.024 41.6853 128.356 40.2404 128.323C38.4767 128.339 36.7466 127.843 35.2615 126.894C33.7223 125.903 32.4915 124.503 31.7076 122.852C30.8465 120.949 30.4012 118.885 30.4012 116.797C30.4012 114.709 30.8465 112.646 31.7076 110.742V110.729ZM45.7823 112.772C45.3327 112.307 44.7939 111.936 44.1978 111.682C43.6017 111.428 42.9605 111.297 42.3123 111.295C41.6641 111.293 41.022 111.42 40.4243 111.67C39.8267 111.921 39.2855 112.288 38.8329 112.75C37.8829 113.728 37.4079 115.065 37.4079 116.775C37.4079 118.485 37.8829 119.844 38.8329 120.839C39.2801 121.31 39.8189 121.685 40.4163 121.941C41.0137 122.197 41.6572 122.33 42.3076 122.33C42.958 122.33 43.6015 122.197 44.1989 121.941C44.7964 121.685 45.3351 121.31 45.7823 120.839C46.7324 119.854 47.2074 118.507 47.2074 116.797C47.2074 115.087 46.7265 113.746 45.7647 112.772H45.7823Z" fill="#27CD0D"/>
<path d="M68.922 106.468C70.1385 105.756 71.5271 105.389 72.9377 105.407V112.65H71.0508C69.3354 112.65 68.0496 113.018 67.1934 113.754C66.3372 114.491 65.9091 115.778 65.9091 117.617V127.986H59.0389V105.626H65.9047V109.357C66.6706 108.172 67.7039 107.183 68.922 106.468Z" fill="#27CD0D"/>
<path d="M97.2297 118.454H81.6772C81.7016 119.648 82.1831 120.787 83.023 121.637C83.8106 122.372 84.8567 122.767 85.9347 122.738C87.6501 122.738 88.842 122.017 89.5106 120.576H96.8206C96.4428 122.057 95.7315 123.432 94.7407 124.597C93.75 125.763 92.5058 126.687 91.1028 127.302C89.5486 127.989 87.8634 128.331 86.1635 128.306C84.1213 128.342 82.1034 127.86 80.3005 126.903C78.601 125.985 77.2058 124.594 76.2848 122.9C75.2943 121.025 74.8036 118.928 74.8597 116.81C74.8104 114.694 75.3007 112.6 76.2848 110.725C77.1953 109.029 78.5855 107.637 80.2829 106.722C82.0925 105.806 84.092 105.326 86.1214 105.319C88.1507 105.312 90.1535 105.779 91.9693 106.683C93.637 107.57 95.0118 108.919 95.9278 110.567C96.9086 112.371 97.3998 114.399 97.3528 116.451C97.3499 117.12 97.3088 117.789 97.2297 118.454ZM90.3243 114.653C90.3478 114.126 90.2517 113.6 90.043 113.115C89.8343 112.63 89.5185 112.198 89.1192 111.852C88.2789 111.144 87.2055 110.773 86.1063 110.808C85.0453 110.778 84.0098 111.135 83.1946 111.812C82.3681 112.544 81.8457 113.557 81.7299 114.653H90.3243Z" fill="#27CD0D"/>
<path d="M101.606 106.468C102.771 104.333 104.519 102.569 106.647 101.382C108.889 100.146 111.417 99.5189 113.979 99.5625C117.321 99.5625 120.186 100.439 122.573 102.193C124.96 103.966 126.65 106.516 127.35 109.401H119.802C119.293 108.287 118.459 107.352 117.409 106.718C116.344 106.094 115.126 105.776 113.891 105.797C112.925 105.762 111.964 105.94 111.075 106.319C110.187 106.698 109.394 107.268 108.753 107.989C107.437 109.451 106.78 111.412 106.783 113.873C106.786 116.334 107.443 118.297 108.753 119.761C109.394 120.482 110.187 121.052 111.075 121.431C111.964 121.81 112.925 121.988 113.891 121.953C115.126 121.974 116.344 121.656 117.409 121.032C118.459 120.397 119.293 119.463 119.802 118.349H127.35C126.667 121.245 124.978 123.806 122.582 125.579C120.198 127.333 117.333 128.209 113.987 128.209C111.426 128.253 108.897 127.626 106.655 126.39C104.532 125.207 102.785 123.452 101.615 121.326C100.427 119.033 99.807 116.49 99.807 113.91C99.807 111.33 100.427 108.787 101.615 106.494L101.606 106.468Z" fill="#333333"/>
<path d="M152.57 118.454H137.026C137.051 119.646 137.533 120.783 138.372 121.633C139.16 122.366 140.206 122.762 141.283 122.733C142.999 122.733 144.191 122.013 144.859 120.572H152.169C151.791 122.052 151.08 123.427 150.089 124.593C149.099 125.758 147.855 126.683 146.452 127.297C144.897 127.984 143.212 128.327 141.512 128.301C139.47 128.338 137.452 127.855 135.649 126.898C133.95 125.98 132.555 124.59 131.633 122.896C130.641 121.023 130.147 118.928 130.2 116.81C130.15 114.694 130.641 112.6 131.625 110.725C132.535 109.029 133.925 107.637 135.623 106.722C137.432 105.806 139.432 105.326 141.461 105.319C143.491 105.312 145.493 105.779 147.309 106.683C148.977 107.57 150.352 108.919 151.268 110.567C152.25 112.371 152.743 114.399 152.697 116.451C152.693 117.12 152.65 117.789 152.57 118.454ZM145.664 114.653C145.688 114.126 145.592 113.6 145.383 113.115C145.174 112.63 144.858 112.198 144.459 111.852C143.619 111.144 142.545 110.773 141.446 110.808C140.385 110.778 139.35 111.135 138.534 111.812C137.708 112.544 137.186 113.557 137.07 114.653H145.664Z" fill="#333333"/>
<path d="M176.241 107.95C177.807 109.642 178.59 111.97 178.59 114.934V127.986H171.768V115.854C171.768 114.359 171.377 113.198 170.603 112.369C169.755 111.572 168.634 111.128 167.469 111.128C166.304 111.128 165.183 111.572 164.335 112.369C163.561 113.196 163.174 114.358 163.174 115.854V127.986H156.304V105.626H163.174V108.59C163.894 107.582 164.862 106.776 165.985 106.249C167.219 105.657 168.574 105.357 169.943 105.372C172.576 105.398 174.676 106.257 176.241 107.95Z" fill="#333333"/>
<path d="M195.862 122.181V127.986H192.37C189.881 127.986 187.94 127.378 186.547 126.162C185.154 124.946 184.458 122.964 184.458 120.217V111.33H181.726V105.63H184.458V100.203H191.323V105.644H195.823V111.343H191.323V120.318C191.299 120.578 191.329 120.842 191.412 121.09C191.495 121.338 191.63 121.567 191.807 121.76C192.271 122.097 192.842 122.253 193.413 122.199L195.862 122.181Z" fill="#333333"/>
<path d="M209.559 106.468C210.775 105.756 212.164 105.389 213.575 105.407V112.65H211.688C209.972 112.65 208.687 113.018 207.83 113.754C206.974 114.491 206.546 115.778 206.546 117.617V127.986H199.68V105.626H206.546V109.357C207.309 108.172 208.341 107.182 209.559 106.468Z" fill="#333333"/>
<path d="M216.807 110.729C217.592 109.089 218.824 107.702 220.361 106.726C221.865 105.79 223.607 105.304 225.38 105.323C226.825 105.291 228.254 105.623 229.536 106.288C230.664 106.867 231.615 107.738 232.289 108.809V105.643H239.138V128.003H232.289V124.838C231.593 125.905 230.631 126.773 229.497 127.359C228.215 128.024 226.785 128.356 225.34 128.323C223.576 128.339 221.846 127.843 220.361 126.894C218.822 125.903 217.591 124.503 216.807 122.852C215.946 120.949 215.501 118.885 215.501 116.797C215.501 114.709 215.946 112.646 216.807 110.742V110.729ZM230.882 112.772C230.432 112.307 229.894 111.936 229.297 111.682C228.701 111.428 228.06 111.297 227.412 111.295C226.764 111.293 226.122 111.42 225.524 111.67C224.926 111.921 224.385 112.288 223.933 112.75C222.983 113.728 222.508 115.065 222.508 116.775C222.508 118.485 222.983 119.844 223.933 120.839C224.38 121.31 224.919 121.685 225.516 121.941C226.113 122.197 226.757 122.33 227.407 122.33C228.058 122.33 228.701 122.197 229.299 121.941C229.896 121.685 230.435 121.31 230.882 120.839C231.832 119.854 232.307 118.507 232.307 116.797C232.307 115.087 231.826 113.746 230.864 112.772H230.882Z" fill="#333333"/>
<path d="M251.013 98.3612V127.986H244.134V98.3612H251.013Z" fill="#333333"/>
<path d="M35.0548 139.17V147.939H33.9068V143.962H29.4337V147.939H28.2857V139.17H29.4337V143.015H33.9156V139.17H35.0548Z" fill="#333333"/>
<path d="M38.7714 147.426C38.1027 147.049 37.5504 146.497 37.1748 145.83C36.791 145.121 36.59 144.327 36.59 143.521C36.59 142.716 36.791 141.922 37.1748 141.213C37.5517 140.547 38.1037 139.995 38.7714 139.617C39.4579 139.243 40.2277 139.047 41.0101 139.047C41.7925 139.047 42.5624 139.243 43.2489 139.617C43.916 139.992 44.4668 140.543 44.8411 141.209C45.2222 141.921 45.4216 142.716 45.4216 143.524C45.4216 144.331 45.2222 145.126 44.8411 145.839C44.4655 146.502 43.9149 147.051 43.2489 147.426C42.5633 147.803 41.7931 148 41.0101 148C40.2272 148 39.457 147.803 38.7714 147.426ZM42.6639 146.579C43.159 146.291 43.5617 145.868 43.825 145.361C44.1028 144.787 44.2471 144.158 44.2471 143.521C44.2471 142.885 44.1028 142.256 43.825 141.682C43.562 141.177 43.161 140.756 42.6683 140.468C42.1589 140.186 41.586 140.038 41.0035 140.038C40.421 140.038 39.8481 140.186 39.3387 140.468C38.8474 140.756 38.4479 141.177 38.1864 141.682C37.9086 142.256 37.7644 142.885 37.7644 143.521C37.7644 144.158 37.9086 144.787 38.1864 145.361C38.4498 145.868 38.8525 146.291 39.3475 146.579C39.8554 146.859 40.4258 147.005 41.0057 147.005C41.5856 147.005 42.156 146.859 42.6639 146.579Z" fill="#333333"/>
<path d="M48.1662 147.693C47.7358 147.509 47.3624 147.214 47.0842 146.838C46.8225 146.467 46.6827 146.025 46.684 145.571H47.9067C47.94 145.969 48.1221 146.34 48.4169 146.61C48.7822 146.923 49.256 147.08 49.7364 147.049C50.2029 147.074 50.6627 146.929 51.0295 146.641C51.1829 146.513 51.305 146.351 51.3866 146.169C51.4681 145.987 51.5069 145.788 51.5002 145.589C51.5129 145.292 51.4141 145.001 51.2231 144.773C51.035 144.561 50.798 144.397 50.5325 144.295C50.1641 144.157 49.7882 144.04 49.4065 143.945C48.9316 143.833 48.4656 143.686 48.0123 143.506C47.6619 143.35 47.3586 143.105 47.1326 142.796C46.8615 142.413 46.7296 141.949 46.7587 141.481C46.7513 141.031 46.8784 140.59 47.1238 140.214C47.378 139.837 47.7351 139.54 48.153 139.359C48.6323 139.149 49.1516 139.046 49.6748 139.056C50.3995 139.027 51.1127 139.243 51.6981 139.67C51.9515 139.866 52.1608 140.113 52.3124 140.394C52.4639 140.676 52.5543 140.986 52.5777 141.305H51.3154C51.263 140.955 51.0731 140.639 50.7876 140.428C50.4333 140.161 49.9958 140.026 49.5517 140.047C49.129 140.029 48.7133 140.159 48.3773 140.415C48.2285 140.543 48.1113 140.703 48.035 140.883C47.9587 141.064 47.9253 141.259 47.9375 141.454C47.9252 141.739 48.021 142.017 48.2058 142.235C48.3935 142.428 48.6218 142.578 48.8743 142.673C49.1426 142.778 49.5121 142.897 49.9915 143.033C50.4702 143.156 50.9392 143.314 51.3946 143.506C51.752 143.665 52.0636 143.911 52.3006 144.221C52.5724 144.604 52.7057 145.068 52.6789 145.536C52.6784 145.961 52.5612 146.378 52.3402 146.742C52.0946 147.136 51.7445 147.454 51.3286 147.662C50.8403 147.906 50.2997 148.026 49.754 148.013C49.2077 148.023 48.6657 147.914 48.1662 147.693Z" fill="#333333"/>
<path d="M59.4699 143.528C58.8298 144.057 58.0076 144.317 57.1784 144.251H55.4894V147.912H54.3415V139.17H57.1784C57.9972 139.112 58.8075 139.367 59.4436 139.885C59.6986 140.119 59.8998 140.406 60.0334 140.725C60.167 141.045 60.2299 141.389 60.2176 141.735C60.2235 142.069 60.1601 142.401 60.0314 142.709C59.9027 143.018 59.7116 143.296 59.4699 143.528ZM58.5903 142.892C58.7437 142.738 58.8624 142.553 58.9382 142.35C59.0141 142.147 59.0454 141.929 59.0301 141.713C59.0301 140.629 58.407 140.088 57.1608 140.091H55.4719V143.309H57.1608C57.673 143.355 58.1836 143.206 58.5903 142.892Z" fill="#333333"/>
<path d="M62.7951 139.17V147.939H61.6427V139.17H62.7951Z" fill="#333333"/>
<path d="M70.1623 139.17V140.1H67.7652V147.934H66.6172V140.078H64.2069V139.17H70.1623Z" fill="#333333"/>
<path d="M76.773 145.961H72.9377L72.2295 147.912H71.02L74.2 139.196H75.5195L78.6863 147.912H77.4723L76.773 145.961ZM76.4431 145.032L74.8553 140.604L73.2631 145.032H76.4431Z" fill="#333333"/>
<path d="M81.2373 146.983H84.3162V147.912H80.0894V139.17H81.2373V146.983Z" fill="#333333"/>
<path d="M97.8147 139.21V147.912H96.6667V141.424L93.7638 147.912H92.9589L90.034 141.41V147.912H88.886V139.21H90.122L93.3547 146.404L96.5831 139.21H97.8147Z" fill="#333333"/>
<path d="M104.958 145.961H101.122L100.414 147.912H99.2045L102.385 139.196H103.704L106.871 147.912H105.657L104.958 145.961ZM104.628 145.032L103.04 140.604L101.47 145.032H104.628Z" fill="#333333"/>
<path d="M115.175 147.912H114.027L109.409 140.924V147.904H108.261V139.135H109.409L114.027 146.102V139.135H115.175V147.912Z" fill="#333333"/>
<path d="M122.331 145.961H118.496L117.788 147.912H116.578L119.754 139.196H121.073L124.24 147.912H123.022L122.331 145.961ZM122.001 145.032L120.413 140.604L118.821 145.032H122.001Z" fill="#333333"/>
<path d="M132.298 141.687C132.07 141.195 131.701 140.781 131.238 140.498C130.751 140.205 130.192 140.053 129.623 140.06C129.04 140.057 128.466 140.208 127.961 140.498C127.467 140.783 127.065 141.201 126.8 141.704C126.503 142.265 126.352 142.89 126.36 143.524C126.352 144.154 126.503 144.777 126.8 145.334C127.066 145.835 127.469 146.252 127.961 146.536C128.466 146.826 129.04 146.977 129.623 146.974C130.402 147.004 131.162 146.728 131.739 146.207C132.313 145.662 132.66 144.921 132.711 144.133H129.192V143.199H133.925V144.076C133.862 144.782 133.628 145.462 133.243 146.058C132.863 146.652 132.338 147.14 131.717 147.478C131.071 147.829 130.346 148.008 129.61 148C128.828 148.01 128.057 147.813 127.376 147.43C126.709 147.054 126.157 146.504 125.779 145.839C125.396 145.13 125.195 144.338 125.195 143.532C125.195 142.727 125.396 141.935 125.779 141.226C126.156 140.56 126.708 140.008 127.376 139.63C128.103 139.237 128.92 139.041 129.747 139.062C130.574 139.082 131.381 139.319 132.087 139.749C132.808 140.212 133.359 140.897 133.657 141.7L132.298 141.687Z" fill="#333333"/>
<path d="M136.599 140.078V143.006H139.801V143.949H136.599V146.97H140.175V147.912H135.451V139.144H140.175V140.086L136.599 140.078Z" fill="#333333"/>
<path d="M150.841 139.21V147.912H149.693V141.424L146.795 147.912H145.985L143.069 141.41V147.912H141.934V139.21H143.17L146.403 146.404L149.631 139.21H150.841Z" fill="#333333"/>
<path d="M153.933 140.078V143.006H157.139V143.949H153.933V146.97H157.518V147.912H152.785V139.144H157.518V140.086L153.933 140.078Z" fill="#333333"/>
<path d="M166.169 147.912H165.021L160.407 140.924V147.904H159.255V139.135H160.407L165.021 146.102V139.135H166.169V147.912Z" fill="#333333"/>
<path d="M173.541 139.17V140.1H171.144V147.934H169.996V140.078H167.586V139.17H173.541Z" fill="#333333"/>
<path d="M179.549 147.693C179.119 147.51 178.747 147.214 178.471 146.838C178.21 146.467 178.069 146.025 178.067 145.571H179.294C179.324 145.974 179.506 146.35 179.804 146.623C180.169 146.936 180.643 147.093 181.124 147.062C181.588 147.074 182.041 146.919 182.399 146.623C182.553 146.495 182.675 146.334 182.756 146.151C182.838 145.969 182.877 145.771 182.87 145.571C182.882 145.274 182.784 144.984 182.593 144.756C182.403 144.542 182.165 144.378 181.898 144.278C181.531 144.139 181.157 144.022 180.776 143.927C180.301 143.816 179.835 143.669 179.382 143.489C179.033 143.331 178.73 143.086 178.502 142.778C178.235 142.394 178.104 141.93 178.133 141.463C178.123 141.014 178.25 140.572 178.498 140.196C178.75 139.817 179.108 139.52 179.527 139.341C180.005 139.132 180.523 139.028 181.044 139.039C181.771 139.009 182.485 139.225 183.072 139.652C183.326 139.848 183.535 140.095 183.686 140.377C183.838 140.658 183.928 140.969 183.952 141.288H182.689C182.635 140.938 182.446 140.623 182.162 140.411C181.807 140.143 181.37 140.008 180.926 140.029C180.503 140.011 180.087 140.141 179.751 140.398C179.602 140.525 179.485 140.685 179.409 140.866C179.333 141.046 179.299 141.241 179.311 141.437C179.299 141.721 179.395 142 179.58 142.217C179.767 142.412 179.995 142.561 180.248 142.656C180.512 142.761 180.886 142.879 181.366 143.015C181.843 143.138 182.311 143.296 182.764 143.489C183.124 143.646 183.437 143.892 183.675 144.203C183.944 144.587 184.077 145.05 184.053 145.518C184.052 145.944 183.935 146.361 183.714 146.724C183.468 147.117 183.118 147.436 182.703 147.645C182.214 147.888 181.674 148.008 181.128 147.996C180.586 148.009 180.047 147.906 179.549 147.693Z" fill="#333333"/>
<path d="M191.882 139.17L189.019 144.624V147.934H187.871V144.624L184.994 139.17H186.27L188.438 143.607L190.611 139.17H191.882Z" fill="#333333"/>
<path d="M194.323 147.693C193.893 147.51 193.521 147.214 193.245 146.838C192.984 146.467 192.843 146.025 192.841 145.571H194.064C194.1 145.969 194.284 146.339 194.578 146.61C194.943 146.924 195.417 147.081 195.898 147.049C196.364 147.074 196.824 146.929 197.191 146.641C197.344 146.513 197.466 146.351 197.548 146.169C197.629 145.987 197.668 145.788 197.661 145.589C197.674 145.292 197.575 145.001 197.384 144.773C197.195 144.56 196.956 144.396 196.689 144.295C196.323 144.157 195.948 144.039 195.568 143.945C195.093 143.833 194.627 143.687 194.173 143.506C193.824 143.348 193.521 143.104 193.294 142.796C193.026 142.411 192.896 141.948 192.924 141.481C192.915 141.031 193.042 140.589 193.289 140.214C193.541 139.834 193.899 139.537 194.319 139.359C194.796 139.149 195.314 139.046 195.836 139.056C196.562 139.026 197.277 139.242 197.864 139.67C198.117 139.866 198.326 140.113 198.478 140.394C198.63 140.676 198.72 140.986 198.743 141.305H197.481C197.427 140.955 197.237 140.641 196.953 140.428C196.599 140.161 196.161 140.026 195.717 140.047C195.295 140.029 194.879 140.159 194.543 140.415C194.394 140.543 194.277 140.703 194.201 140.883C194.125 141.064 194.091 141.259 194.103 141.454C194.092 141.739 194.19 142.018 194.376 142.235C194.563 142.429 194.791 142.579 195.044 142.673C195.308 142.778 195.682 142.897 196.162 143.033C196.639 143.155 197.107 143.313 197.56 143.506C197.92 143.663 198.233 143.909 198.471 144.221C198.74 144.605 198.873 145.068 198.849 145.536C198.848 145.961 198.731 146.378 198.51 146.742C198.264 147.135 197.914 147.453 197.499 147.662C197.01 147.905 196.47 148.026 195.924 148.013C195.373 148.025 194.827 147.915 194.323 147.693Z" fill="#333333"/>
<path d="M205.913 139.17V140.1H203.511V147.934H202.368V140.078H199.957V139.17H205.913Z" fill="#333333"/>
<path d="M208.472 140.078V143.006H211.679V143.949H208.472V146.97H212.057V147.912H207.324V139.144H212.057V140.086L208.472 140.078Z" fill="#333333"/>
<path d="M222.719 139.21V147.912H221.571V141.424L218.668 147.912H217.859L214.947 141.41V147.912H213.799V139.21H215.035L218.263 146.404L221.492 139.21H222.719Z" fill="#333333"/>
</g>
<defs>
<clipPath id="clip0_1075_1681">
<rect width="251" height="148" fill="white"/>
</clipPath>
</defs>
</svg>
