<svg width="60" height="64" viewBox="0 0 60 64" fill="none" xmlns="http://www.w3.org/2000/svg">
<path d="M39.4721 23.9996C38.4966 28.8559 35.7811 33.1712 31.852 36.1089C27.9229 39.0465 23.0602 40.3973 18.2067 39.8992C13.3531 39.4011 8.85445 37.0897 5.58291 33.4131C2.31136 29.7365 0.5 24.9566 0.5 20.0002C0.5 15.0438 2.31136 10.264 5.58291 6.58737C8.85445 2.91078 13.3531 0.599374 18.2067 0.101291C23.0602 -0.396793 27.9229 0.953927 31.852 3.89158C35.7811 6.82923 38.4966 11.1445 39.4721 16.0008H24.1064V7.99885H16.2337V16.0008H8.36097V23.9996H16.2337V32.0016H24.1064V23.9996H39.4721Z" fill="#27CD0D"/>
<path d="M39.8177 23.9998C35.2795 23.9991 30.8804 25.5913 27.3648 28.507C23.8492 31.4227 21.433 35.4829 20.5249 40.0005H35.8782V32.0017H43.7509V40.0005H51.6267V47.9993H43.754V56.0013H35.8813V47.9993H20.528C21.2728 51.707 23.0376 55.124 25.6173 57.8533C28.1971 60.5826 31.4861 62.5124 35.1022 63.4184C38.7184 64.3244 42.5133 64.1695 46.0462 62.9717C49.5792 61.7739 52.7052 59.5824 55.0612 56.6516C57.4172 53.7208 58.9065 50.171 59.3561 46.4146C59.8058 42.6582 59.1974 38.8492 57.6015 35.4301C56.0056 32.0109 53.4877 29.122 50.3404 27.0987C47.193 25.0754 43.5453 24.0008 39.8208 23.9998H39.8177Z" fill="#333333"/>
</svg>
